<?xml version="1.0" encoding="utf-8" ?>
<svg xmlns="http://www.w3.org/2000/svg" xmlns:cc="http://creativecommons.org/ns" xmlns:dc="http://purl.org/dc/elements/1.1/" xmlns:ev="http://www.w3.org/2001/xml-events" xmlns:inkscape="http://www.inkscape.org/namespaces/inkscape" xmlns:rdf="http://www.w3.org/1999/02/22-rdf-syntax-ns" xmlns:sodipodi="http://sodipodi.sourceforge.net/DTD/sodipodi-0.dtd" xmlns:xlink="http://www.w3.org/1999/xlink" baseProfile="tiny" height="35.56cm" version="1.2" viewBox="0 0 1056.0 1344.0" width="27.94cm">
  <metadata>
    <rdf:RDF>
      <cc:Work>
        <dc:format>image/svg+xml</dc:format>
        <dc:source/>
        <dc:date>2022-07-09T11:31:30.249976</dc:date>
      </cc:Work>
    </rdf:RDF>
  </metadata>
  <defs/>
  <g fill="none" id="layer1" inkscape:groupmode="layer" inkscape:label="1" stroke="#0000ff" style="display:inline">
    <polyline points="36.6614,105.0709 112.252,142.8661 74.4567,105.0709 112.252,105.0709"/>
    <polyline points="150.0472,105.0709 187.8425,142.8661 225.6378,67.2756"/>
    <polyline points="187.8425,67.2756 225.6378,142.8661 187.8425,142.8661"/>
    <line x1="150.0472" x2="150.0472" y1="142.8661" y2="67.2756"/>
    <line x1="74.4567" x2="36.6614" y1="67.2756" y2="142.8661"/>
    <line x1="74.4567" x2="74.4567" y1="142.8661" y2="105.0709"/>
    <line x1="36.6614" x2="112.252" y1="180.6614" y2="256.252"/>
    <line x1="150.0472" x2="225.6378" y1="294.0472" y2="331.8425"/>
    <polyline points="187.8425,369.6378 150.0472,331.8425 187.8425,331.8425 150.0472,369.6378 187.8425,294.0472"/>
    <polyline points="225.6378,256.252 187.8425,256.252 187.8425,218.4567"/>
    <polyline points="225.6378,218.4567 150.0472,256.252 187.8425,218.4567 150.0472,180.6614"/>
    <polyline points="74.4567,218.4567 74.4567,256.252 74.4567,218.4567 36.6614,218.4567"/>
    <polyline points="36.6614,331.8425 112.252,331.8425 74.4567,369.6378 36.6614,369.6378 112.252,369.6378"/>
    <line x1="112.252" x2="74.4567" y1="407.4331" y2="483.0236"/>
    <line x1="74.4567" x2="36.6614" y1="445.2283" y2="483.0236"/>
    <line x1="36.6614" x2="74.4567" y1="520.8189" y2="520.8189"/>
    <line x1="112.252" x2="112.252" y1="520.8189" y2="596.4094"/>
    <line x1="150.0472" x2="150.0472" y1="596.4094" y2="520.8189"/>
    <line x1="150.0472" x2="150.0472" y1="483.0236" y2="407.4331"/>
    <polyline points="187.8425,407.4331 150.0472,445.2283 225.6378,445.2283"/>
    <line x1="225.6378" x2="225.6378" y1="483.0236" y2="407.4331"/>
    <line x1="187.8425" x2="187.8425" y1="445.2283" y2="445.2283"/>
    <polyline points="187.8425,520.8189 150.0472,596.4094 187.8425,558.6142 187.8425,596.4094"/>
    <line x1="225.6378" x2="150.0472" y1="596.4094" y2="558.6142"/>
    <line x1="150.0472" x2="150.0472" y1="634.2047" y2="709.7953"/>
    <line x1="112.252" x2="74.4567" y1="709.7953" y2="672.0"/>
    <polyline points="74.4567,709.7953 112.252,709.7953 112.252,672.0"/>
    <line x1="112.252" x2="36.6614" y1="634.2047" y2="634.2047"/>
    <polygon points="36.6614,596.4094 112.252,520.8189 74.4567,596.4094"/>
    <polyline points="36.6614,445.2283 36.6614,483.0236 74.4567,407.4331"/>
    <line x1="36.6614" x2="74.4567" y1="369.6378" y2="331.8425"/>
    <polyline points="263.4331,369.6378 301.2283,331.8425 263.4331,294.0472 339.0236,369.6378"/>
    <line x1="339.0236" x2="339.0236" y1="331.8425" y2="294.0472"/>
    <line x1="339.0236" x2="339.0236" y1="218.4567" y2="180.6614"/>
    <polyline points="376.8189,180.6614 414.6142,218.4567 376.8189,218.4567"/>
    <polygon points="414.6142,256.252 414.6142,180.6614"/>
    <polygon points="452.4094,294.0472 452.4094,331.8425"/>
    <line x1="490.2047" x2="565.7953" y1="256.252" y2="180.6614"/>
    <polyline points="528.0,180.6614 528.0,218.4567 565.7953,180.6614 490.2047,218.4567"/>
    <line x1="565.7953" x2="565.7953" y1="218.4567" y2="218.4567"/>
    <polyline points="603.5906,256.252 679.1811,180.6614 641.3858,180.6614"/>
    <line x1="641.3858" x2="679.1811" y1="218.4567" y2="256.252"/>
    <polyline points="641.3858,256.252 603.5906,218.4567 679.1811,218.4567"/>
    <line x1="716.9764" x2="716.9764" y1="218.4567" y2="218.4567"/>
    <polygon points="754.7717,218.4567 716.9764,180.6614"/>
    <polygon points="754.7717,256.252 792.5669,180.6614"/>
    <polyline points="792.5669,294.0472 754.7717,294.0472 792.5669,369.6378 792.5669,331.8425"/>
    <polyline points="754.7717,331.8425 716.9764,331.8425 754.7717,369.6378"/>
    <polyline points="792.5669,407.4331 754.7717,407.4331 792.5669,407.4331 792.5669,445.2283"/>
    <polyline points="792.5669,483.0236 716.9764,407.4331 754.7717,483.0236"/>
    <polyline points="716.9764,520.8189 754.7717,520.8189 792.5669,596.4094 716.9764,596.4094"/>
    <polyline points="716.9764,558.6142 754.7717,596.4094 792.5669,596.4094"/>
    <polyline points="792.5669,634.2047 716.9764,634.2047 754.7717,672.0"/>
    <polyline points="792.5669,672.0 716.9764,672.0 754.7717,634.2047"/>
    <polyline points="830.3622,634.2047 868.1575,709.7953 868.1575,634.2047"/>
    <line x1="868.1575" x2="905.9528" y1="672.0" y2="709.7953"/>
    <line x1="868.1575" x2="830.3622" y1="709.7953" y2="672.0"/>
    <line x1="830.3622" x2="905.9528" y1="709.7953" y2="672.0"/>
    <polyline points="943.748,672.0 1019.3386,672.0 943.748,709.7953 1019.3386,672.0"/>
    <line x1="1019.3386" x2="981.5433" y1="709.7953" y2="709.7953"/>
    <polyline points="981.5433,747.5906 943.748,785.3858 1019.3386,785.3858"/>
    <line x1="981.5433" x2="943.748" y1="785.3858" y2="747.5906"/>
    <polyline points="905.9528,747.5906 830.3622,747.5906 868.1575,747.5906"/>
    <line x1="868.1575" x2="830.3622" y1="785.3858" y2="823.1811"/>
    <line x1="868.1575" x2="905.9528" y1="823.1811" y2="785.3858"/>
    <line x1="943.748" x2="943.748" y1="785.3858" y2="823.1811"/>
    <line x1="943.748" x2="1019.3386" y1="860.9764" y2="898.7717"/>
    <line x1="1019.3386" x2="981.5433" y1="936.5669" y2="898.7717"/>
    <line x1="943.748" x2="943.748" y1="898.7717" y2="936.5669"/>
    <line x1="905.9528" x2="905.9528" y1="898.7717" y2="898.7717"/>
    <polyline points="868.1575,860.9764 868.1575,936.5669 830.3622,898.7717"/>
    <polyline points="792.5669,898.7717 754.7717,936.5669 792.5669,936.5669 716.9764,936.5669"/>
    <line x1="716.9764" x2="792.5669" y1="898.7717" y2="860.9764"/>
    <polyline points="792.5669,785.3858 716.9764,747.5906 792.5669,747.5906 754.7717,823.1811 792.5669,785.3858 716.9764,823.1811"/>
    <polyline points="679.1811,785.3858 641.3858,823.1811 603.5906,785.3858 603.5906,823.1811"/>
    <line x1="603.5906" x2="641.3858" y1="785.3858" y2="785.3858"/>
    <line x1="641.3858" x2="641.3858" y1="709.7953" y2="672.0"/>
    <polyline points="679.1811,672.0 603.5906,672.0 679.1811,709.7953 641.3858,634.2047"/>
    <polyline points="641.3858,596.4094 603.5906,596.4094 641.3858,596.4094 603.5906,520.8189 679.1811,558.6142"/>
    <line x1="641.3858" x2="603.5906" y1="558.6142" y2="558.6142"/>
    <line x1="565.7953" x2="565.7953" y1="558.6142" y2="520.8189"/>
    <line x1="528.0" x2="528.0" y1="520.8189" y2="520.8189"/>
    <polyline points="490.2047,483.0236 490.2047,407.4331 528.0,407.4331 490.2047,445.2283"/>
    <line x1="452.4094" x2="452.4094" y1="445.2283" y2="407.4331"/>
    <polyline points="414.6142,407.4331 452.4094,445.2283 452.4094,483.0236"/>
    <line x1="452.4094" x2="414.6142" y1="520.8189" y2="520.8189"/>
    <polyline points="414.6142,483.0236 376.8189,407.4331 414.6142,445.2283"/>
    <line x1="339.0236" x2="301.2283" y1="483.0236" y2="445.2283"/>
    <polyline points="301.2283,483.0236 339.0236,483.0236 301.2283,407.4331"/>
    <line x1="339.0236" x2="263.4331" y1="407.4331" y2="483.0236"/>
    <polyline points="301.2283,520.8189 263.4331,520.8189 263.4331,558.6142"/>
    <polyline points="301.2283,558.6142 301.2283,520.8189 339.0236,520.8189 263.4331,596.4094"/>
    <line x1="263.4331" x2="263.4331" y1="672.0" y2="709.7953"/>
    <polyline points="301.2283,709.7953 301.2283,634.2047 301.2283,672.0 263.4331,634.2047 339.0236,634.2047"/>
    <polyline points="376.8189,672.0 414.6142,709.7953 376.8189,709.7953 414.6142,709.7953 414.6142,672.0"/>
    <line x1="452.4094" x2="452.4094" y1="672.0" y2="634.2047"/>
    <polyline points="452.4094,596.4094 376.8189,558.6142 414.6142,596.4094 376.8189,520.8189 414.6142,558.6142"/>
    <line x1="490.2047" x2="565.7953" y1="558.6142" y2="596.4094"/>
    <line x1="528.0" x2="490.2047" y1="596.4094" y2="596.4094"/>
    <polyline points="528.0,634.2047 490.2047,634.2047 528.0,709.7953"/>
    <polyline points="565.7953,709.7953 565.7953,634.2047 528.0,709.7953 565.7953,672.0"/>
    <polyline points="528.0,747.5906 490.2047,823.1811 565.7953,785.3858 528.0,823.1811 490.2047,785.3858"/>
    <line x1="528.0" x2="528.0" y1="785.3858" y2="823.1811"/>
    <line x1="565.7953" x2="490.2047" y1="860.9764" y2="860.9764"/>
    <polyline points="452.4094,860.9764 452.4094,898.7717 376.8189,898.7717"/>
    <line x1="414.6142" x2="414.6142" y1="898.7717" y2="898.7717"/>
    <line x1="414.6142" x2="376.8189" y1="936.5669" y2="936.5669"/>
    <line x1="376.8189" x2="452.4094" y1="974.3622" y2="974.3622"/>
    <polyline points="452.4094,1012.1575 414.6142,974.3622 376.8189,1049.9528 452.4094,1049.9528"/>
    <line x1="490.2047" x2="528.0" y1="1049.9528" y2="1012.1575"/>
    <polyline points="565.7953,1012.1575 565.7953,974.3622 565.7953,1049.9528 490.2047,974.3622 528.0,974.3622"/>
    <line x1="528.0" x2="490.2047" y1="936.5669" y2="936.5669"/>
    <polyline points="528.0,898.7717 565.7953,898.7717 565.7953,936.5669 565.7953,898.7717"/>
    <line x1="603.5906" x2="641.3858" y1="898.7717" y2="898.7717"/>
    <polyline points="679.1811,898.7717 641.3858,898.7717 679.1811,860.9764 679.1811,936.5669"/>
    <line x1="641.3858" x2="603.5906" y1="936.5669" y2="860.9764"/>
    <line x1="641.3858" x2="641.3858" y1="974.3622" y2="1049.9528"/>
    <polyline points="641.3858,1087.748 603.5906,1163.3386 679.1811,1087.748"/>
    <polyline points="679.1811,1125.5433 641.3858,1163.3386 679.1811,1163.3386"/>
    <polyline points="716.9764,1163.3386 792.5669,1163.3386 792.5669,1087.748"/>
    <line x1="754.7717" x2="754.7717" y1="1087.748" y2="1087.748"/>
    <line x1="716.9764" x2="754.7717" y1="1087.748" y2="1163.3386"/>
    <line x1="792.5669" x2="792.5669" y1="1163.3386" y2="1125.5433"/>
    <polyline points="830.3622,1087.748 830.3622,1163.3386 905.9528,1125.5433"/>
    <polyline points="905.9528,1163.3386 868.1575,1087.748 868.1575,1163.3386"/>
    <polyline points="905.9528,1201.1339 830.3622,1238.9291 905.9528,1238.9291 868.1575,1201.1339 830.3622,1238.9291"/>
    <line x1="830.3622" x2="868.1575" y1="1276.7244" y2="1276.7244"/>
    <polygon points="792.5669,1276.7244 754.7717,1238.9291"/>
    <line x1="754.7717" x2="754.7717" y1="1276.7244" y2="1276.7244"/>
    <polyline points="792.5669,1238.9291 792.5669,1201.1339 716.9764,1201.1339"/>
    <polyline points="641.3858,1238.9291 603.5906,1276.7244 641.3858,1201.1339 641.3858,1276.7244 603.5906,1238.9291 641.3858,1276.7244"/>
    <polyline points="565.7953,1276.7244 490.2047,1238.9291 490.2047,1201.1339"/>
    <polyline points="452.4094,1201.1339 414.6142,1238.9291 414.6142,1201.1339"/>
    <polyline points="376.8189,1238.9291 452.4094,1276.7244 452.4094,1238.9291"/>
    <line x1="490.2047" x2="528.0" y1="1276.7244" y2="1276.7244"/>
    <line x1="565.7953" x2="565.7953" y1="1238.9291" y2="1201.1339"/>
    <line x1="565.7953" x2="528.0" y1="1163.3386" y2="1125.5433"/>
    <polyline points="490.2047,1125.5433 490.2047,1163.3386 528.0,1087.748 565.7953,1087.748 490.2047,1087.748"/>
    <line x1="414.6142" x2="414.6142" y1="1087.748" y2="1125.5433"/>
    <polyline points="376.8189,1125.5433 452.4094,1163.3386 452.4094,1125.5433 376.8189,1163.3386 376.8189,1087.748"/>
    <line x1="376.8189" x2="376.8189" y1="1049.9528" y2="1012.1575"/>
    <polyline points="339.0236,1012.1575 263.4331,1012.1575 339.0236,974.3622"/>
    <polyline points="339.0236,1049.9528 263.4331,974.3622 301.2283,974.3622 263.4331,1049.9528"/>
    <polyline points="225.6378,1049.9528 187.8425,974.3622 225.6378,974.3622"/>
    <line x1="187.8425" x2="150.0472" y1="974.3622" y2="1049.9528"/>
    <line x1="187.8425" x2="150.0472" y1="1049.9528" y2="1012.1575"/>
    <polyline points="112.252,1012.1575 36.6614,1012.1575 74.4567,974.3622"/>
    <polyline points="74.4567,936.5669 74.4567,898.7717 112.252,936.5669"/>
    <polyline points="150.0472,936.5669 187.8425,936.5669 150.0472,860.9764 150.0472,898.7717"/>
    <polyline points="187.8425,898.7717 225.6378,860.9764 225.6378,898.7717"/>
    <line x1="263.4331" x2="301.2283" y1="936.5669" y2="860.9764"/>
    <polyline points="263.4331,860.9764 339.0236,936.5669 301.2283,898.7717 339.0236,860.9764"/>
    <line x1="301.2283" x2="263.4331" y1="823.1811" y2="823.1811"/>
    <line x1="263.4331" x2="339.0236" y1="785.3858" y2="785.3858"/>
    <polyline points="301.2283,785.3858 339.0236,823.1811 263.4331,823.1811 301.2283,747.5906"/>
    <polyline points="225.6378,747.5906 225.6378,785.3858 150.0472,823.1811"/>
    <line x1="150.0472" x2="187.8425" y1="785.3858" y2="747.5906"/>
    <polygon points="150.0472,747.5906 225.6378,823.1811"/>
    <line x1="112.252" x2="36.6614" y1="785.3858" y2="785.3858"/>
    <line x1="36.6614" x2="74.4567" y1="823.1811" y2="823.1811"/>
    <polyline points="74.4567,785.3858 74.4567,747.5906 112.252,823.1811"/>
    <polyline points="74.4567,860.9764 112.252,898.7717 36.6614,936.5669 36.6614,860.9764"/>
    <polyline points="36.6614,974.3622 36.6614,1012.1575 74.4567,1049.9528 74.4567,1012.1575"/>
    <line x1="74.4567" x2="36.6614" y1="1087.748" y2="1125.5433"/>
    <polyline points="74.4567,1125.5433 112.252,1087.748 36.6614,1087.748"/>
    <line x1="112.252" x2="36.6614" y1="1087.748" y2="1163.3386"/>
    <line x1="74.4567" x2="112.252" y1="1163.3386" y2="1163.3386"/>
    <polyline points="74.4567,1201.1339 112.252,1276.7244 112.252,1238.9291"/>
    <polyline points="150.0472,1276.7244 187.8425,1238.9291 225.6378,1238.9291"/>
    <polyline points="263.4331,1238.9291 339.0236,1276.7244 301.2283,1201.1339 263.4331,1276.7244 301.2283,1201.1339"/>
    <line x1="301.2283" x2="339.0236" y1="1163.3386" y2="1163.3386"/>
    <polyline points="339.0236,1125.5433 263.4331,1125.5433 263.4331,1087.748 263.4331,1163.3386"/>
    <line x1="301.2283" x2="301.2283" y1="1125.5433" y2="1125.5433"/>
    <polyline points="225.6378,1125.5433 150.0472,1125.5433 187.8425,1087.748 187.8425,1163.3386 187.8425,1125.5433 225.6378,1087.748"/>
    <line x1="187.8425" x2="187.8425" y1="1201.1339" y2="1201.1339"/>
    <line x1="187.8425" x2="187.8425" y1="1276.7244" y2="1276.7244"/>
    <line x1="263.4331" x2="339.0236" y1="1276.7244" y2="1201.1339"/>
    <line x1="376.8189" x2="414.6142" y1="1276.7244" y2="1276.7244"/>
    <polyline points="603.5906,1049.9528 679.1811,1049.9528 603.5906,974.3622 603.5906,1012.1575"/>
    <line x1="716.9764" x2="754.7717" y1="1049.9528" y2="1012.1575"/>
    <polyline points="792.5669,1012.1575 716.9764,974.3622 792.5669,1049.9528 792.5669,1012.1575 754.7717,974.3622"/>
    <polyline points="830.3622,1049.9528 868.1575,1012.1575 905.9528,1012.1575 905.9528,974.3622"/>
    <line x1="868.1575" x2="905.9528" y1="974.3622" y2="1049.9528"/>
    <polyline points="981.5433,1049.9528 943.748,1049.9528 943.748,974.3622 1019.3386,974.3622"/>
    <polyline points="981.5433,974.3622 1019.3386,1012.1575 981.5433,1012.1575"/>
    <line x1="981.5433" x2="981.5433" y1="1087.748" y2="1087.748"/>
    <polyline points="1019.3386,1087.748 943.748,1163.3386 981.5433,1125.5433 1019.3386,1125.5433 981.5433,1163.3386"/>
    <polyline points="981.5433,1201.1339 943.748,1238.9291 981.5433,1201.1339 943.748,1276.7244 981.5433,1276.7244"/>
    <line x1="1019.3386" x2="943.748" y1="1201.1339" y2="1201.1339"/>
    <line x1="1019.3386" x2="1019.3386" y1="860.9764" y2="860.9764"/>
    <line x1="981.5433" x2="981.5433" y1="634.2047" y2="634.2047"/>
    <polyline points="981.5433,596.4094 1019.3386,520.8189 981.5433,596.4094 1019.3386,596.4094"/>
    <line x1="981.5433" x2="1019.3386" y1="558.6142" y2="520.8189"/>
    <polyline points="1019.3386,483.0236 981.5433,483.0236 981.5433,407.4331 981.5433,483.0236"/>
    <line x1="981.5433" x2="981.5433" y1="520.8189" y2="520.8189"/>
    <line x1="905.9528" x2="905.9528" y1="520.8189" y2="596.4094"/>
    <line x1="905.9528" x2="868.1575" y1="558.6142" y2="596.4094"/>
    <line x1="868.1575" x2="830.3622" y1="558.6142" y2="520.8189"/>
    <line x1="868.1575" x2="905.9528" y1="483.0236" y2="483.0236"/>
    <polyline points="868.1575,445.2283 905.9528,445.2283 830.3622,483.0236 868.1575,407.4331"/>
    <line x1="905.9528" x2="830.3622" y1="407.4331" y2="445.2283"/>
    <polyline points="830.3622,369.6378 868.1575,294.0472 830.3622,294.0472"/>
    <line x1="830.3622" x2="830.3622" y1="331.8425" y2="331.8425"/>
    <polyline points="868.1575,331.8425 905.9528,294.0472 868.1575,369.6378"/>
    <polyline points="943.748,331.8425 943.748,369.6378 1019.3386,369.6378 943.748,331.8425 1019.3386,294.0472 1019.3386,331.8425"/>
    <line x1="1019.3386" x2="1019.3386" y1="256.252" y2="218.4567"/>
    <line x1="981.5433" x2="981.5433" y1="180.6614" y2="256.252"/>
    <polyline points="943.748,256.252 943.748,180.6614 981.5433,218.4567 943.748,218.4567"/>
    <polyline points="905.9528,180.6614 830.3622,218.4567 830.3622,256.252 905.9528,218.4567 868.1575,256.252"/>
    <line x1="868.1575" x2="830.3622" y1="218.4567" y2="180.6614"/>
    <polyline points="905.9528,142.8661 830.3622,105.0709 905.9528,67.2756 905.9528,105.0709"/>
    <line x1="943.748" x2="943.748" y1="105.0709" y2="105.0709"/>
    <polygon points="943.748,142.8661 1019.3386,67.2756"/>
    <line x1="981.5433" x2="981.5433" y1="105.0709" y2="67.2756"/>
    <line x1="1019.3386" x2="1019.3386" y1="105.0709" y2="142.8661"/>
    <polyline points="868.1575,67.2756 905.9528,105.0709 830.3622,67.2756"/>
    <polyline points="792.5669,67.2756 754.7717,105.0709 792.5669,142.8661 792.5669,105.0709"/>
    <line x1="754.7717" x2="716.9764" y1="105.0709" y2="142.8661"/>
    <polyline points="679.1811,142.8661 641.3858,67.2756 603.5906,142.8661 679.1811,67.2756 641.3858,105.0709"/>
    <line x1="679.1811" x2="679.1811" y1="105.0709" y2="105.0709"/>
    <polyline points="565.7953,67.2756 490.2047,67.2756 490.2047,142.8661"/>
    <polygon points="490.2047,105.0709 528.0,142.8661 565.7953,142.8661"/>
    <polyline points="452.4094,105.0709 376.8189,142.8661 376.8189,105.0709 414.6142,142.8661"/>
    <polygon points="376.8189,105.0709 376.8189,67.2756"/>
    <polyline points="301.2283,105.0709 263.4331,105.0709 301.2283,142.8661 263.4331,142.8661"/>
    <polyline points="301.2283,180.6614 263.4331,218.4567 263.4331,256.252"/>
    <line x1="301.2283" x2="301.2283" y1="218.4567" y2="218.4567"/>
    <line x1="301.2283" x2="301.2283" y1="369.6378" y2="369.6378"/>
    <polyline points="376.8189,369.6378 376.8189,294.0472 452.4094,369.6378"/>
    <polyline points="490.2047,369.6378 528.0,331.8425 528.0,294.0472 565.7953,331.8425"/>
    <line x1="528.0" x2="490.2047" y1="369.6378" y2="331.8425"/>
    <polyline points="565.7953,407.4331 565.7953,483.0236 565.7953,445.2283"/>
    <polyline points="603.5906,483.0236 603.5906,407.4331 603.5906,445.2283 679.1811,407.4331"/>
    <polyline points="641.3858,407.4331 641.3858,483.0236 679.1811,483.0236"/>
    <polyline points="679.1811,369.6378 679.1811,331.8425 641.3858,294.0472 679.1811,331.8425 641.3858,294.0472 679.1811,294.0472"/>
    <line x1="943.748" x2="943.748" y1="407.4331" y2="445.2283"/>
    <line x1="792.5669" x2="716.9764" y1="709.7953" y2="709.7953"/>
    <polyline points="414.6142,747.5906 452.4094,747.5906 414.6142,823.1811"/>
    <line x1="414.6142" x2="376.8189" y1="785.3858" y2="785.3858"/>
    <line x1="376.8189" x2="376.8189" y1="747.5906" y2="747.5906"/>
    <polyline points="225.6378,672.0 150.0472,634.2047 150.0472,672.0 187.8425,634.2047 187.8425,672.0"/>
    <line x1="36.6614" x2="36.6614" y1="1201.1339" y2="1201.1339"/>
    <polyline points="36.6614,1276.7244 36.6614,1238.9291 74.4567,1276.7244"/>
    <polyline points="263.4331,67.2756 339.0236,142.8661 301.2283,67.2756"/>
  </g>
</svg>
