<?xml version="1.0" encoding="utf-8" ?>
<svg xmlns="http://www.w3.org/2000/svg" xmlns:cc="http://creativecommons.org/ns" xmlns:dc="http://purl.org/dc/elements/1.1/" xmlns:ev="http://www.w3.org/2001/xml-events" xmlns:inkscape="http://www.inkscape.org/namespaces/inkscape" xmlns:rdf="http://www.w3.org/1999/02/22-rdf-syntax-ns" xmlns:sodipodi="http://sodipodi.sourceforge.net/DTD/sodipodi-0.dtd" xmlns:xlink="http://www.w3.org/1999/xlink" baseProfile="tiny" height="35.56cm" version="1.2" viewBox="0 0 1056.0 1344.0" width="27.94cm">
  <metadata>
    <rdf:RDF>
      <cc:Work>
        <dc:format>image/svg+xml</dc:format>
        <dc:source/>
        <dc:date>2022-07-09T11:23:53.917139</dc:date>
      </cc:Work>
    </rdf:RDF>
  </metadata>
  <defs/>
  <g fill="none" id="layer1" inkscape:groupmode="layer" inkscape:label="1" stroke="#0000ff" style="display:inline">
    <polyline points="112.252,67.2756 36.6614,105.0709 112.252,105.0709 112.252,142.8661"/>
    <line x1="150.0472" x2="187.8425" y1="180.6614" y2="256.252"/>
    <line x1="187.8425" x2="150.0472" y1="294.0472" y2="369.6378"/>
    <line x1="150.0472" x2="187.8425" y1="331.8425" y2="331.8425"/>
    <line x1="225.6378" x2="225.6378" y1="294.0472" y2="294.0472"/>
    <line x1="263.4331" x2="301.2283" y1="256.252" y2="180.6614"/>
    <polyline points="263.4331,180.6614 339.0236,180.6614 263.4331,218.4567"/>
    <line x1="187.8425" x2="150.0472" y1="218.4567" y2="256.252"/>
    <line x1="112.252" x2="112.252" y1="256.252" y2="218.4567"/>
    <line x1="74.4567" x2="74.4567" y1="218.4567" y2="218.4567"/>
    <line x1="36.6614" x2="74.4567" y1="218.4567" y2="180.6614"/>
    <line x1="74.4567" x2="74.4567" y1="294.0472" y2="369.6378"/>
    <line x1="36.6614" x2="112.252" y1="369.6378" y2="331.8425"/>
    <line x1="112.252" x2="36.6614" y1="369.6378" y2="294.0472"/>
    <line x1="36.6614" x2="74.4567" y1="407.4331" y2="407.4331"/>
    <line x1="74.4567" x2="74.4567" y1="445.2283" y2="445.2283"/>
    <line x1="36.6614" x2="112.252" y1="445.2283" y2="483.0236"/>
    <polyline points="150.0472,445.2283 150.0472,483.0236 187.8425,483.0236"/>
    <line x1="187.8425" x2="150.0472" y1="445.2283" y2="407.4331"/>
    <line x1="263.4331" x2="263.4331" y1="407.4331" y2="445.2283"/>
    <line x1="301.2283" x2="339.0236" y1="445.2283" y2="445.2283"/>
    <line x1="376.8189" x2="414.6142" y1="445.2283" y2="445.2283"/>
    <line x1="414.6142" x2="414.6142" y1="483.0236" y2="407.4331"/>
    <line x1="414.6142" x2="376.8189" y1="369.6378" y2="294.0472"/>
    <line x1="376.8189" x2="414.6142" y1="256.252" y2="180.6614"/>
    <line x1="414.6142" x2="414.6142" y1="218.4567" y2="256.252"/>
    <line x1="452.4094" x2="376.8189" y1="294.0472" y2="331.8425"/>
    <line x1="339.0236" x2="339.0236" y1="331.8425" y2="369.6378"/>
    <polygon points="339.0236,331.8425 301.2283,294.0472"/>
    <line x1="490.2047" x2="528.0" y1="331.8425" y2="331.8425"/>
    <polyline points="565.7953,331.8425 565.7953,294.0472 565.7953,369.6378"/>
    <line x1="528.0" x2="528.0" y1="407.4331" y2="445.2283"/>
    <line x1="490.2047" x2="565.7953" y1="445.2283" y2="483.0236"/>
    <line x1="565.7953" x2="528.0" y1="520.8189" y2="520.8189"/>
    <line x1="490.2047" x2="565.7953" y1="520.8189" y2="596.4094"/>
    <line x1="528.0" x2="565.7953" y1="596.4094" y2="558.6142"/>
    <polyline points="603.5906,558.6142 603.5906,596.4094 641.3858,596.4094"/>
    <line x1="641.3858" x2="679.1811" y1="634.2047" y2="672.0"/>
    <line x1="679.1811" x2="603.5906" y1="709.7953" y2="634.2047"/>
    <line x1="565.7953" x2="565.7953" y1="634.2047" y2="634.2047"/>
    <line x1="565.7953" x2="528.0" y1="672.0" y2="672.0"/>
    <line x1="528.0" x2="565.7953" y1="709.7953" y2="709.7953"/>
    <line x1="565.7953" x2="565.7953" y1="747.5906" y2="823.1811"/>
    <line x1="565.7953" x2="490.2047" y1="785.3858" y2="747.5906"/>
    <line x1="452.4094" x2="376.8189" y1="747.5906" y2="785.3858"/>
    <polyline points="376.8189,747.5906 376.8189,823.1811 452.4094,823.1811"/>
    <polyline points="452.4094,860.9764 414.6142,936.5669 376.8189,936.5669"/>
    <polyline points="376.8189,974.3622 452.4094,1049.9528 452.4094,974.3622"/>
    <line x1="490.2047" x2="490.2047" y1="936.5669" y2="860.9764"/>
    <line x1="565.7953" x2="528.0" y1="860.9764" y2="936.5669"/>
    <line x1="565.7953" x2="565.7953" y1="898.7717" y2="898.7717"/>
    <line x1="603.5906" x2="679.1811" y1="898.7717" y2="936.5669"/>
    <polyline points="641.3858,936.5669 679.1811,898.7717 641.3858,898.7717"/>
    <line x1="641.3858" x2="603.5906" y1="974.3622" y2="1012.1575"/>
    <line x1="641.3858" x2="603.5906" y1="1012.1575" y2="974.3622"/>
    <line x1="565.7953" x2="490.2047" y1="974.3622" y2="1012.1575"/>
    <line x1="528.0" x2="528.0" y1="1012.1575" y2="1012.1575"/>
    <line x1="528.0" x2="490.2047" y1="1049.9528" y2="1049.9528"/>
    <line x1="452.4094" x2="376.8189" y1="1087.748" y2="1125.5433"/>
    <line x1="376.8189" x2="414.6142" y1="1163.3386" y2="1087.748"/>
    <line x1="452.4094" x2="414.6142" y1="1125.5433" y2="1163.3386"/>
    <line x1="414.6142" x2="414.6142" y1="1201.1339" y2="1201.1339"/>
    <polyline points="490.2047,1201.1339 490.2047,1276.7244 528.0,1238.9291"/>
    <polyline points="565.7953,1163.3386 490.2047,1125.5433 528.0,1125.5433"/>
    <line x1="528.0" x2="565.7953" y1="1087.748" y2="1087.748"/>
    <line x1="603.5906" x2="679.1811" y1="1087.748" y2="1087.748"/>
    <line x1="641.3858" x2="679.1811" y1="1049.9528" y2="1012.1575"/>
    <line x1="716.9764" x2="716.9764" y1="974.3622" y2="1049.9528"/>
    <polyline points="754.7717,1049.9528 716.9764,1049.9528 792.5669,1049.9528"/>
    <line x1="830.3622" x2="905.9528" y1="1049.9528" y2="1012.1575"/>
    <line x1="868.1575" x2="905.9528" y1="1012.1575" y2="1049.9528"/>
    <polyline points="905.9528,1087.748 868.1575,1163.3386 830.3622,1125.5433"/>
    <line x1="792.5669" x2="754.7717" y1="1125.5433" y2="1087.748"/>
    <polyline points="754.7717,1163.3386 792.5669,1087.748 792.5669,1163.3386"/>
    <line x1="792.5669" x2="792.5669" y1="1201.1339" y2="1238.9291"/>
    <line x1="830.3622" x2="830.3622" y1="1238.9291" y2="1201.1339"/>
    <line x1="868.1575" x2="905.9528" y1="1201.1339" y2="1201.1339"/>
    <line x1="905.9528" x2="905.9528" y1="1163.3386" y2="1125.5433"/>
    <line x1="943.748" x2="981.5433" y1="1125.5433" y2="1087.748"/>
    <polyline points="943.748,1087.748 981.5433,1125.5433 943.748,1163.3386"/>
    <polyline points="943.748,1238.9291 1019.3386,1276.7244 981.5433,1276.7244"/>
    <line x1="981.5433" x2="1019.3386" y1="1238.9291" y2="1238.9291"/>
    <line x1="905.9528" x2="868.1575" y1="1238.9291" y2="1276.7244"/>
    <line x1="792.5669" x2="754.7717" y1="1276.7244" y2="1201.1339"/>
    <line x1="716.9764" x2="716.9764" y1="1238.9291" y2="1276.7244"/>
    <polyline points="679.1811,1201.1339 641.3858,1238.9291 603.5906,1238.9291 641.3858,1201.1339"/>
    <line x1="641.3858" x2="679.1811" y1="1163.3386" y2="1163.3386"/>
    <line x1="603.5906" x2="603.5906" y1="1163.3386" y2="1125.5433"/>
    <line x1="414.6142" x2="414.6142" y1="1276.7244" y2="1276.7244"/>
    <polygon points="339.0236,1276.7244 263.4331,1201.1339"/>
    <line x1="301.2283" x2="301.2283" y1="1238.9291" y2="1238.9291"/>
    <polyline points="225.6378,1238.9291 225.6378,1276.7244 150.0472,1276.7244"/>
    <line x1="112.252" x2="74.4567" y1="1276.7244" y2="1238.9291"/>
    <line x1="36.6614" x2="112.252" y1="1201.1339" y2="1201.1339"/>
    <line x1="74.4567" x2="74.4567" y1="1163.3386" y2="1087.748"/>
    <line x1="74.4567" x2="36.6614" y1="1125.5433" y2="1163.3386"/>
    <polyline points="187.8425,1163.3386 150.0472,1163.3386 187.8425,1087.748"/>
    <line x1="225.6378" x2="225.6378" y1="1087.748" y2="1163.3386"/>
    <line x1="263.4331" x2="339.0236" y1="1163.3386" y2="1087.748"/>
    <line x1="339.0236" x2="339.0236" y1="1125.5433" y2="1125.5433"/>
    <line x1="301.2283" x2="263.4331" y1="1125.5433" y2="1125.5433"/>
    <polyline points="301.2283,1012.1575 301.2283,974.3622 339.0236,1012.1575"/>
    <polyline points="263.4331,936.5669 301.2283,860.9764 339.0236,898.7717"/>
    <line x1="376.8189" x2="414.6142" y1="860.9764" y2="898.7717"/>
    <line x1="339.0236" x2="301.2283" y1="823.1811" y2="785.3858"/>
    <line x1="263.4331" x2="263.4331" y1="785.3858" y2="747.5906"/>
    <polyline points="225.6378,785.3858 150.0472,785.3858 187.8425,785.3858"/>
    <line x1="187.8425" x2="150.0472" y1="823.1811" y2="823.1811"/>
    <line x1="112.252" x2="112.252" y1="823.1811" y2="785.3858"/>
    <polyline points="74.4567,785.3858 74.4567,823.1811 112.252,747.5906"/>
    <line x1="150.0472" x2="187.8425" y1="672.0" y2="672.0"/>
    <line x1="187.8425" x2="225.6378" y1="709.7953" y2="709.7953"/>
    <line x1="263.4331" x2="301.2283" y1="672.0" y2="634.2047"/>
    <line x1="301.2283" x2="339.0236" y1="672.0" y2="634.2047"/>
    <line x1="339.0236" x2="339.0236" y1="672.0" y2="709.7953"/>
    <polyline points="376.8189,709.7953 414.6142,634.2047 452.4094,709.7953"/>
    <line x1="414.6142" x2="414.6142" y1="709.7953" y2="709.7953"/>
    <line x1="339.0236" x2="263.4331" y1="785.3858" y2="823.1811"/>
    <line x1="263.4331" x2="263.4331" y1="898.7717" y2="898.7717"/>
    <polyline points="150.0472,936.5669 150.0472,898.7717 187.8425,898.7717 150.0472,860.9764"/>
    <line x1="112.252" x2="112.252" y1="860.9764" y2="860.9764"/>
    <polyline points="74.4567,898.7717 36.6614,936.5669 112.252,936.5669"/>
    <polyline points="74.4567,974.3622 112.252,974.3622 36.6614,1049.9528 74.4567,1012.1575"/>
    <polyline points="150.0472,1012.1575 225.6378,1049.9528 187.8425,974.3622 187.8425,1012.1575"/>
    <polyline points="74.4567,672.0 36.6614,709.7953 112.252,634.2047"/>
    <line x1="150.0472" x2="150.0472" y1="634.2047" y2="634.2047"/>
    <polyline points="150.0472,596.4094 187.8425,558.6142 225.6378,558.6142"/>
    <line x1="225.6378" x2="150.0472" y1="596.4094" y2="558.6142"/>
    <polyline points="112.252,596.4094 74.4567,596.4094 74.4567,558.6142 36.6614,558.6142"/>
    <line x1="36.6614" x2="36.6614" y1="634.2047" y2="634.2047"/>
    <line x1="263.4331" x2="263.4331" y1="558.6142" y2="520.8189"/>
    <polyline points="301.2283,520.8189 339.0236,520.8189 301.2283,596.4094"/>
    <line x1="376.8189" x2="376.8189" y1="596.4094" y2="520.8189"/>
    <line x1="376.8189" x2="452.4094" y1="483.0236" y2="483.0236"/>
    <polyline points="414.6142,520.8189 414.6142,596.4094 376.8189,558.6142"/>
    <line x1="603.5906" x2="603.5906" y1="520.8189" y2="596.4094"/>
    <line x1="603.5906" x2="679.1811" y1="672.0" y2="634.2047"/>
    <line x1="716.9764" x2="716.9764" y1="634.2047" y2="672.0"/>
    <polyline points="716.9764,709.7953 754.7717,709.7953 754.7717,672.0"/>
    <line x1="754.7717" x2="754.7717" y1="747.5906" y2="785.3858"/>
    <polyline points="792.5669,785.3858 716.9764,785.3858 754.7717,823.1811"/>
    <polyline points="792.5669,860.9764 716.9764,860.9764 716.9764,898.7717"/>
    <line x1="754.7717" x2="792.5669" y1="898.7717" y2="898.7717"/>
    <polygon points="868.1575,898.7717 830.3622,936.5669"/>
    <line x1="868.1575" x2="905.9528" y1="936.5669" y2="898.7717"/>
    <polygon points="943.748,974.3622 981.5433,1049.9528"/>
    <polyline points="981.5433,936.5669 943.748,936.5669 981.5433,860.9764"/>
    <line x1="1019.3386" x2="1019.3386" y1="860.9764" y2="936.5669"/>
    <line x1="1019.3386" x2="981.5433" y1="823.1811" y2="747.5906"/>
    <line x1="981.5433" x2="981.5433" y1="709.7953" y2="709.7953"/>
    <polyline points="943.748,672.0 1019.3386,709.7953 981.5433,634.2047"/>
    <line x1="943.748" x2="943.748" y1="596.4094" y2="558.6142"/>
    <line x1="905.9528" x2="868.1575" y1="558.6142" y2="596.4094"/>
    <line x1="868.1575" x2="905.9528" y1="634.2047" y2="672.0"/>
    <line x1="868.1575" x2="830.3622" y1="709.7953" y2="634.2047"/>
    <line x1="792.5669" x2="716.9764" y1="596.4094" y2="558.6142"/>
    <line x1="754.7717" x2="754.7717" y1="558.6142" y2="558.6142"/>
    <line x1="754.7717" x2="792.5669" y1="520.8189" y2="520.8189"/>
    <polyline points="830.3622,558.6142 868.1575,520.8189 905.9528,520.8189"/>
    <line x1="943.748" x2="943.748" y1="520.8189" y2="520.8189"/>
    <line x1="943.748" x2="943.748" y1="483.0236" y2="483.0236"/>
    <line x1="943.748" x2="981.5433" y1="445.2283" y2="483.0236"/>
    <line x1="981.5433" x2="981.5433" y1="520.8189" y2="520.8189"/>
    <line x1="1019.3386" x2="943.748" y1="445.2283" y2="407.4331"/>
    <line x1="981.5433" x2="981.5433" y1="369.6378" y2="331.8425"/>
    <polyline points="1019.3386,331.8425 943.748,294.0472 943.748,331.8425"/>
    <line x1="943.748" x2="1019.3386" y1="256.252" y2="256.252"/>
    <line x1="981.5433" x2="981.5433" y1="256.252" y2="218.4567"/>
    <line x1="981.5433" x2="1019.3386" y1="180.6614" y2="180.6614"/>
    <polyline points="1019.3386,67.2756 1019.3386,105.0709 943.748,105.0709 943.748,67.2756"/>
    <line x1="905.9528" x2="830.3622" y1="67.2756" y2="105.0709"/>
    <line x1="830.3622" x2="830.3622" y1="142.8661" y2="142.8661"/>
    <line x1="792.5669" x2="716.9764" y1="142.8661" y2="105.0709"/>
    <line x1="716.9764" x2="754.7717" y1="142.8661" y2="105.0709"/>
    <line x1="754.7717" x2="754.7717" y1="67.2756" y2="142.8661"/>
    <polyline points="754.7717,180.6614 716.9764,218.4567 716.9764,256.252"/>
    <line x1="716.9764" x2="716.9764" y1="294.0472" y2="294.0472"/>
    <polyline points="679.1811,294.0472 641.3858,294.0472 641.3858,369.6378"/>
    <line x1="641.3858" x2="603.5906" y1="331.8425" y2="294.0472"/>
    <polyline points="603.5906,256.252 679.1811,180.6614 679.1811,256.252"/>
    <line x1="679.1811" x2="641.3858" y1="218.4567" y2="180.6614"/>
    <line x1="641.3858" x2="679.1811" y1="142.8661" y2="105.0709"/>
    <polygon points="641.3858,105.0709 641.3858,67.2756"/>
    <line x1="565.7953" x2="565.7953" y1="67.2756" y2="142.8661"/>
    <line x1="528.0" x2="490.2047" y1="142.8661" y2="67.2756"/>
    <line x1="452.4094" x2="376.8189" y1="105.0709" y2="142.8661"/>
    <polyline points="376.8189,105.0709 414.6142,67.2756 376.8189,67.2756"/>
    <polygon points="339.0236,67.2756 263.4331,142.8661"/>
    <line x1="339.0236" x2="339.0236" y1="142.8661" y2="142.8661"/>
    <line x1="452.4094" x2="452.4094" y1="180.6614" y2="218.4567"/>
    <polyline points="490.2047,256.252 528.0,256.252 490.2047,180.6614 528.0,218.4567"/>
    <line x1="490.2047" x2="528.0" y1="142.8661" y2="105.0709"/>
    <line x1="716.9764" x2="754.7717" y1="180.6614" y2="256.252"/>
    <line x1="792.5669" x2="716.9764" y1="294.0472" y2="369.6378"/>
    <polyline points="716.9764,407.4331 754.7717,483.0236 754.7717,407.4331"/>
    <line x1="792.5669" x2="716.9764" y1="445.2283" y2="483.0236"/>
    <line x1="679.1811" x2="603.5906" y1="483.0236" y2="483.0236"/>
    <polyline points="603.5906,445.2283 641.3858,445.2283 641.3858,407.4331"/>
    <line x1="754.7717" x2="754.7717" y1="331.8425" y2="331.8425"/>
    <polygon points="830.3622,331.8425 830.3622,294.0472 868.1575,331.8425"/>
    <polyline points="830.3622,407.4331 830.3622,483.0236 830.3622,445.2283"/>
    <line x1="868.1575" x2="868.1575" y1="445.2283" y2="483.0236"/>
    <line x1="868.1575" x2="905.9528" y1="256.252" y2="256.252"/>
    <polyline points="905.9528,218.4567 905.9528,180.6614 868.1575,218.4567"/>
    <line x1="868.1575" x2="868.1575" y1="105.0709" y2="105.0709"/>
    <line x1="905.9528" x2="830.3622" y1="747.5906" y2="823.1811"/>
    <line x1="868.1575" x2="905.9528" y1="785.3858" y2="785.3858"/>
    <polygon points="1019.3386,747.5906 981.5433,823.1811"/>
    <line x1="1019.3386" x2="1019.3386" y1="1049.9528" y2="1049.9528"/>
    <line x1="679.1811" x2="679.1811" y1="823.1811" y2="747.5906"/>
    <line x1="641.3858" x2="641.3858" y1="785.3858" y2="785.3858"/>
    <line x1="603.5906" x2="603.5906" y1="785.3858" y2="747.5906"/>
    <line x1="528.0" x2="490.2047" y1="785.3858" y2="785.3858"/>
    <line x1="187.8425" x2="187.8425" y1="180.6614" y2="180.6614"/>
    <polyline points="187.8425,142.8661 225.6378,142.8661 150.0472,67.2756"/>
  </g>
</svg>
