<?xml version="1.0" encoding="utf-8" ?>
<svg xmlns="http://www.w3.org/2000/svg" xmlns:cc="http://creativecommons.org/ns" xmlns:dc="http://purl.org/dc/elements/1.1/" xmlns:ev="http://www.w3.org/2001/xml-events" xmlns:inkscape="http://www.inkscape.org/namespaces/inkscape" xmlns:rdf="http://www.w3.org/1999/02/22-rdf-syntax-ns" xmlns:sodipodi="http://sodipodi.sourceforge.net/DTD/sodipodi-0.dtd" xmlns:xlink="http://www.w3.org/1999/xlink" baseProfile="tiny" height="35.56cm" version="1.2" viewBox="0 0 1056.0 1344.0" width="27.94cm">
  <metadata>
    <rdf:RDF>
      <cc:Work>
        <dc:format>image/svg+xml</dc:format>
        <dc:source/>
        <dc:date>2022-07-09T11:23:10.840502</dc:date>
      </cc:Work>
    </rdf:RDF>
  </metadata>
  <defs/>
  <g fill="none" id="layer1" inkscape:groupmode="layer" inkscape:label="1" stroke="#0000ff" style="display:inline">
    <polyline points="112.252,67.2756 74.4567,105.0709 36.6614,105.0709"/>
    <line x1="74.4567" x2="112.252" y1="105.0709" y2="105.0709"/>
    <line x1="150.0472" x2="225.6378" y1="105.0709" y2="142.8661"/>
    <line x1="187.8425" x2="150.0472" y1="142.8661" y2="142.8661"/>
    <polyline points="187.8425,180.6614 225.6378,256.252 187.8425,256.252 187.8425,218.4567"/>
    <polyline points="112.252,218.4567 112.252,256.252 36.6614,180.6614 74.4567,256.252"/>
    <line x1="74.4567" x2="112.252" y1="294.0472" y2="331.8425"/>
    <line x1="150.0472" x2="225.6378" y1="331.8425" y2="294.0472"/>
    <line x1="225.6378" x2="225.6378" y1="331.8425" y2="369.6378"/>
    <line x1="187.8425" x2="187.8425" y1="369.6378" y2="331.8425"/>
    <polyline points="263.4331,331.8425 339.0236,294.0472 301.2283,369.6378"/>
    <line x1="263.4331" x2="339.0236" y1="369.6378" y2="331.8425"/>
    <polyline points="376.8189,294.0472 452.4094,331.8425 452.4094,369.6378"/>
    <line x1="452.4094" x2="414.6142" y1="331.8425" y2="331.8425"/>
    <polyline points="414.6142,407.4331 376.8189,407.4331 376.8189,483.0236"/>
    <line x1="414.6142" x2="414.6142" y1="483.0236" y2="445.2283"/>
    <line x1="339.0236" x2="339.0236" y1="445.2283" y2="483.0236"/>
    <line x1="301.2283" x2="263.4331" y1="445.2283" y2="407.4331"/>
    <line x1="263.4331" x2="263.4331" y1="445.2283" y2="483.0236"/>
    <line x1="263.4331" x2="263.4331" y1="520.8189" y2="596.4094"/>
    <line x1="263.4331" x2="301.2283" y1="558.6142" y2="520.8189"/>
    <line x1="301.2283" x2="339.0236" y1="558.6142" y2="596.4094"/>
    <line x1="376.8189" x2="452.4094" y1="558.6142" y2="520.8189"/>
    <line x1="490.2047" x2="528.0" y1="520.8189" y2="596.4094"/>
    <line x1="490.2047" x2="490.2047" y1="596.4094" y2="596.4094"/>
    <line x1="452.4094" x2="414.6142" y1="596.4094" y2="596.4094"/>
    <line x1="414.6142" x2="414.6142" y1="634.2047" y2="709.7953"/>
    <line x1="414.6142" x2="452.4094" y1="672.0" y2="672.0"/>
    <line x1="452.4094" x2="376.8189" y1="709.7953" y2="634.2047"/>
    <polyline points="339.0236,672.0 339.0236,709.7953 263.4331,709.7953"/>
    <line x1="263.4331" x2="263.4331" y1="747.5906" y2="785.3858"/>
    <polyline points="301.2283,785.3858 263.4331,785.3858 301.2283,823.1811"/>
    <polyline points="339.0236,860.9764 263.4331,898.7717 263.4331,860.9764 301.2283,898.7717"/>
    <line x1="225.6378" x2="150.0472" y1="898.7717" y2="936.5669"/>
    <line x1="187.8425" x2="187.8425" y1="974.3622" y2="1049.9528"/>
    <line x1="150.0472" x2="225.6378" y1="1049.9528" y2="1012.1575"/>
    <line x1="187.8425" x2="225.6378" y1="1012.1575" y2="974.3622"/>
    <line x1="225.6378" x2="187.8425" y1="936.5669" y2="898.7717"/>
    <line x1="187.8425" x2="225.6378" y1="860.9764" y2="860.9764"/>
    <line x1="225.6378" x2="225.6378" y1="823.1811" y2="785.3858"/>
    <line x1="225.6378" x2="225.6378" y1="747.5906" y2="747.5906"/>
    <line x1="187.8425" x2="150.0472" y1="823.1811" y2="785.3858"/>
    <line x1="112.252" x2="112.252" y1="785.3858" y2="747.5906"/>
    <line x1="112.252" x2="74.4567" y1="709.7953" y2="634.2047"/>
    <line x1="36.6614" x2="36.6614" y1="634.2047" y2="709.7953"/>
    <line x1="36.6614" x2="112.252" y1="672.0" y2="672.0"/>
    <line x1="150.0472" x2="187.8425" y1="709.7953" y2="672.0"/>
    <polyline points="187.8425,634.2047 150.0472,672.0 150.0472,634.2047"/>
    <line x1="150.0472" x2="225.6378" y1="596.4094" y2="558.6142"/>
    <polyline points="187.8425,596.4094 225.6378,520.8189 150.0472,520.8189"/>
    <polyline points="150.0472,483.0236 225.6378,407.4331 187.8425,445.2283"/>
    <line x1="187.8425" x2="150.0472" y1="483.0236" y2="445.2283"/>
    <polyline points="112.252,483.0236 36.6614,407.4331 74.4567,445.2283"/>
    <line x1="36.6614" x2="36.6614" y1="483.0236" y2="483.0236"/>
    <polyline points="74.4567,558.6142 36.6614,558.6142 36.6614,596.4094"/>
    <line x1="36.6614" x2="74.4567" y1="747.5906" y2="785.3858"/>
    <line x1="74.4567" x2="112.252" y1="823.1811" y2="823.1811"/>
    <polyline points="74.4567,860.9764 74.4567,898.7717 36.6614,898.7717"/>
    <line x1="36.6614" x2="112.252" y1="860.9764" y2="898.7717"/>
    <polyline points="112.252,974.3622 74.4567,1049.9528 74.4567,974.3622"/>
    <line x1="36.6614" x2="36.6614" y1="1012.1575" y2="1049.9528"/>
    <line x1="36.6614" x2="74.4567" y1="1087.748" y2="1125.5433"/>
    <line x1="112.252" x2="36.6614" y1="1125.5433" y2="1163.3386"/>
    <line x1="36.6614" x2="74.4567" y1="1201.1339" y2="1276.7244"/>
    <polyline points="74.4567,1238.9291 36.6614,1201.1339 74.4567,1201.1339"/>
    <polyline points="150.0472,1238.9291 225.6378,1201.1339 225.6378,1238.9291"/>
    <line x1="263.4331" x2="263.4331" y1="1238.9291" y2="1276.7244"/>
    <line x1="301.2283" x2="301.2283" y1="1276.7244" y2="1238.9291"/>
    <line x1="301.2283" x2="339.0236" y1="1201.1339" y2="1201.1339"/>
    <polyline points="376.8189,1238.9291 376.8189,1201.1339 452.4094,1238.9291"/>
    <line x1="452.4094" x2="414.6142" y1="1276.7244" y2="1276.7244"/>
    <polyline points="490.2047,1201.1339 528.0,1276.7244 528.0,1238.9291 565.7953,1238.9291"/>
    <line x1="603.5906" x2="679.1811" y1="1238.9291" y2="1238.9291"/>
    <line x1="716.9764" x2="716.9764" y1="1238.9291" y2="1238.9291"/>
    <line x1="716.9764" x2="716.9764" y1="1201.1339" y2="1201.1339"/>
    <line x1="716.9764" x2="792.5669" y1="1163.3386" y2="1163.3386"/>
    <polyline points="830.3622,1163.3386 905.9528,1163.3386 905.9528,1087.748"/>
    <line x1="905.9528" x2="868.1575" y1="1049.9528" y2="1012.1575"/>
    <line x1="905.9528" x2="905.9528" y1="1012.1575" y2="1012.1575"/>
    <line x1="868.1575" x2="868.1575" y1="974.3622" y2="1049.9528"/>
    <line x1="868.1575" x2="868.1575" y1="1125.5433" y2="1125.5433"/>
    <line x1="792.5669" x2="716.9764" y1="1125.5433" y2="1087.748"/>
    <line x1="716.9764" x2="716.9764" y1="1049.9528" y2="1012.1575"/>
    <line x1="754.7717" x2="754.7717" y1="1012.1575" y2="1012.1575"/>
    <line x1="716.9764" x2="792.5669" y1="974.3622" y2="1049.9528"/>
    <line x1="792.5669" x2="716.9764" y1="1087.748" y2="1125.5433"/>
    <line x1="679.1811" x2="641.3858" y1="1163.3386" y2="1087.748"/>
    <polyline points="641.3858,1049.9528 679.1811,1049.9528 603.5906,1049.9528 603.5906,1012.1575"/>
    <line x1="565.7953" x2="490.2047" y1="974.3622" y2="974.3622"/>
    <line x1="490.2047" x2="528.0" y1="936.5669" y2="898.7717"/>
    <line x1="528.0" x2="528.0" y1="936.5669" y2="936.5669"/>
    <polyline points="528.0,974.3622 528.0,1049.9528 528.0,1012.1575"/>
    <line x1="565.7953" x2="565.7953" y1="1087.748" y2="1125.5433"/>
    <line x1="528.0" x2="528.0" y1="1125.5433" y2="1125.5433"/>
    <line x1="490.2047" x2="490.2047" y1="1125.5433" y2="1087.748"/>
    <polyline points="452.4094,1125.5433 376.8189,1125.5433 414.6142,1163.3386 414.6142,1125.5433"/>
    <polyline points="414.6142,1049.9528 376.8189,1049.9528 414.6142,1012.1575"/>
    <line x1="376.8189" x2="376.8189" y1="1012.1575" y2="974.3622"/>
    <polyline points="339.0236,974.3622 263.4331,1012.1575 301.2283,1049.9528"/>
    <line x1="301.2283" x2="263.4331" y1="1087.748" y2="1125.5433"/>
    <line x1="225.6378" x2="150.0472" y1="1125.5433" y2="1125.5433"/>
    <polyline points="150.0472,1087.748 225.6378,1087.748 225.6378,1163.3386"/>
    <line x1="263.4331" x2="339.0236" y1="1163.3386" y2="1087.748"/>
    <line x1="339.0236" x2="301.2283" y1="1049.9528" y2="1012.1575"/>
    <line x1="339.0236" x2="301.2283" y1="1125.5433" y2="1163.3386"/>
    <line x1="187.8425" x2="187.8425" y1="1201.1339" y2="1276.7244"/>
    <line x1="112.252" x2="74.4567" y1="1087.748" y2="1087.748"/>
    <polyline points="376.8189,898.7717 452.4094,860.9764 414.6142,860.9764"/>
    <line x1="376.8189" x2="414.6142" y1="860.9764" y2="936.5669"/>
    <line x1="490.2047" x2="565.7953" y1="860.9764" y2="898.7717"/>
    <line x1="603.5906" x2="679.1811" y1="898.7717" y2="898.7717"/>
    <line x1="641.3858" x2="679.1811" y1="898.7717" y2="860.9764"/>
    <line x1="716.9764" x2="754.7717" y1="860.9764" y2="860.9764"/>
    <polyline points="754.7717,823.1811 754.7717,747.5906 716.9764,785.3858"/>
    <line x1="754.7717" x2="792.5669" y1="785.3858" y2="747.5906"/>
    <line x1="830.3622" x2="830.3622" y1="747.5906" y2="823.1811"/>
    <polyline points="830.3622,785.3858 830.3622,747.5906 905.9528,823.1811"/>
    <line x1="905.9528" x2="905.9528" y1="860.9764" y2="898.7717"/>
    <polyline points="943.748,936.5669 943.748,898.7717 1019.3386,936.5669"/>
    <line x1="981.5433" x2="1019.3386" y1="898.7717" y2="860.9764"/>
    <polyline points="981.5433,785.3858 1019.3386,747.5906 943.748,747.5906"/>
    <line x1="1019.3386" x2="981.5433" y1="709.7953" y2="634.2047"/>
    <polyline points="1019.3386,634.2047 943.748,709.7953 1019.3386,672.0"/>
    <line x1="1019.3386" x2="981.5433" y1="558.6142" y2="520.8189"/>
    <polyline points="1019.3386,520.8189 981.5433,596.4094 943.748,520.8189"/>
    <line x1="905.9528" x2="905.9528" y1="520.8189" y2="596.4094"/>
    <line x1="868.1575" x2="868.1575" y1="596.4094" y2="558.6142"/>
    <line x1="868.1575" x2="868.1575" y1="483.0236" y2="445.2283"/>
    <line x1="830.3622" x2="905.9528" y1="445.2283" y2="407.4331"/>
    <line x1="943.748" x2="1019.3386" y1="369.6378" y2="369.6378"/>
    <line x1="981.5433" x2="943.748" y1="369.6378" y2="294.0472"/>
    <polyline points="943.748,256.252 981.5433,256.252 943.748,218.4567"/>
    <polyline points="868.1575,218.4567 868.1575,180.6614 830.3622,256.252 830.3622,180.6614"/>
    <polyline points="830.3622,142.8661 868.1575,105.0709 905.9528,142.8661"/>
    <line x1="905.9528" x2="868.1575" y1="67.2756" y2="67.2756"/>
    <polygon points="943.748,67.2756 943.748,142.8661"/>
    <line x1="981.5433" x2="1019.3386" y1="67.2756" y2="105.0709"/>
    <line x1="1019.3386" x2="1019.3386" y1="180.6614" y2="218.4567"/>
    <line x1="981.5433" x2="981.5433" y1="294.0472" y2="294.0472"/>
    <polyline points="981.5433,407.4331 943.748,483.0236 1019.3386,407.4331"/>
    <line x1="981.5433" x2="981.5433" y1="445.2283" y2="445.2283"/>
    <polygon points="868.1575,369.6378 905.9528,294.0472"/>
    <line x1="868.1575" x2="830.3622" y1="331.8425" y2="331.8425"/>
    <line x1="792.5669" x2="716.9764" y1="369.6378" y2="331.8425"/>
    <polyline points="679.1811,369.6378 679.1811,331.8425 603.5906,294.0472"/>
    <line x1="641.3858" x2="603.5906" y1="331.8425" y2="369.6378"/>
    <polyline points="565.7953,331.8425 565.7953,294.0472 490.2047,294.0472"/>
    <polyline points="490.2047,256.252 565.7953,256.252 490.2047,180.6614"/>
    <line x1="452.4094" x2="376.8189" y1="180.6614" y2="180.6614"/>
    <polyline points="414.6142,180.6614 376.8189,218.4567 376.8189,256.252"/>
    <line x1="339.0236" x2="301.2283" y1="256.252" y2="180.6614"/>
    <line x1="263.4331" x2="339.0236" y1="180.6614" y2="218.4567"/>
    <line x1="301.2283" x2="263.4331" y1="256.252" y2="218.4567"/>
    <line x1="263.4331" x2="263.4331" y1="142.8661" y2="142.8661"/>
    <polyline points="301.2283,142.8661 301.2283,105.0709 339.0236,67.2756"/>
    <line x1="414.6142" x2="414.6142" y1="67.2756" y2="142.8661"/>
    <polyline points="376.8189,142.8661 452.4094,67.2756 452.4094,105.0709"/>
    <polyline points="528.0,105.0709 490.2047,142.8661 565.7953,142.8661"/>
    <polyline points="603.5906,180.6614 603.5906,256.252 641.3858,180.6614 679.1811,180.6614"/>
    <line x1="641.3858" x2="603.5906" y1="142.8661" y2="67.2756"/>
    <polyline points="679.1811,67.2756 603.5906,67.2756 679.1811,105.0709"/>
    <polyline points="754.7717,67.2756 754.7717,142.8661 716.9764,142.8661 754.7717,142.8661"/>
    <polyline points="754.7717,256.252 716.9764,218.4567 716.9764,256.252"/>
    <line x1="792.5669" x2="754.7717" y1="294.0472" y2="369.6378"/>
    <line x1="754.7717" x2="716.9764" y1="407.4331" y2="483.0236"/>
    <line x1="754.7717" x2="716.9764" y1="483.0236" y2="407.4331"/>
    <line x1="754.7717" x2="792.5669" y1="445.2283" y2="407.4331"/>
    <line x1="792.5669" x2="754.7717" y1="520.8189" y2="558.6142"/>
    <line x1="792.5669" x2="792.5669" y1="558.6142" y2="596.4094"/>
    <line x1="792.5669" x2="716.9764" y1="634.2047" y2="709.7953"/>
    <line x1="716.9764" x2="792.5669" y1="672.0" y2="709.7953"/>
    <polyline points="830.3622,709.7953 868.1575,672.0 868.1575,634.2047"/>
    <line x1="830.3622" x2="830.3622" y1="634.2047" y2="672.0"/>
    <line x1="754.7717" x2="716.9764" y1="672.0" y2="634.2047"/>
    <line x1="679.1811" x2="603.5906" y1="634.2047" y2="634.2047"/>
    <line x1="565.7953" x2="565.7953" y1="634.2047" y2="634.2047"/>
    <line x1="528.0" x2="528.0" y1="634.2047" y2="672.0"/>
    <line x1="565.7953" x2="528.0" y1="672.0" y2="709.7953"/>
    <line x1="528.0" x2="490.2047" y1="747.5906" y2="785.3858"/>
    <line x1="490.2047" x2="528.0" y1="747.5906" y2="823.1811"/>
    <line x1="565.7953" x2="565.7953" y1="785.3858" y2="785.3858"/>
    <line x1="603.5906" x2="679.1811" y1="785.3858" y2="785.3858"/>
    <line x1="641.3858" x2="679.1811" y1="785.3858" y2="747.5906"/>
    <line x1="641.3858" x2="603.5906" y1="747.5906" y2="747.5906"/>
    <line x1="603.5906" x2="679.1811" y1="672.0" y2="672.0"/>
    <line x1="641.3858" x2="641.3858" y1="672.0" y2="672.0"/>
    <line x1="603.5906" x2="679.1811" y1="596.4094" y2="520.8189"/>
    <line x1="641.3858" x2="641.3858" y1="520.8189" y2="558.6142"/>
    <line x1="603.5906" x2="603.5906" y1="558.6142" y2="520.8189"/>
    <line x1="528.0" x2="528.0" y1="520.8189" y2="520.8189"/>
    <polyline points="528.0,483.0236 565.7953,483.0236 565.7953,407.4331"/>
    <line x1="565.7953" x2="565.7953" y1="445.2283" y2="445.2283"/>
    <polyline points="641.3858,445.2283 603.5906,407.4331 641.3858,483.0236 641.3858,407.4331"/>
    <line x1="528.0" x2="528.0" y1="369.6378" y2="369.6378"/>
    <line x1="754.7717" x2="716.9764" y1="520.8189" y2="596.4094"/>
    <polyline points="830.3622,860.9764 868.1575,898.7717 868.1575,860.9764"/>
    <polyline points="792.5669,936.5669 754.7717,860.9764 754.7717,898.7717"/>
    <line x1="641.3858" x2="641.3858" y1="936.5669" y2="936.5669"/>
    <polyline points="603.5906,1125.5433 603.5906,1087.748 641.3858,1163.3386"/>
    <polyline points="641.3858,1201.1339 641.3858,1238.9291 603.5906,1201.1339"/>
    <line x1="754.7717" x2="792.5669" y1="1276.7244" y2="1201.1339"/>
    <polyline points="830.3622,1201.1339 868.1575,1201.1339 830.3622,1238.9291"/>
    <line x1="868.1575" x2="868.1575" y1="1238.9291" y2="1201.1339"/>
    <line x1="943.748" x2="981.5433" y1="1276.7244" y2="1238.9291"/>
    <polyline points="981.5433,1276.7244 1019.3386,1276.7244 1019.3386,1238.9291"/>
    <line x1="1019.3386" x2="1019.3386" y1="1163.3386" y2="1163.3386"/>
    <polyline points="981.5433,1125.5433 981.5433,1163.3386 981.5433,1087.748"/>
    <polyline points="1019.3386,1012.1575 981.5433,1049.9528 943.748,1012.1575 981.5433,974.3622"/>
    <line x1="452.4094" x2="376.8189" y1="823.1811" y2="823.1811"/>
    <polyline points="376.8189,747.5906 452.4094,823.1811 414.6142,747.5906"/>
    <line x1="74.4567" x2="36.6614" y1="369.6378" y2="294.0472"/>
    <line x1="36.6614" x2="112.252" y1="369.6378" y2="294.0472"/>
    <line x1="187.8425" x2="225.6378" y1="67.2756" y2="67.2756"/>
  </g>
</svg>
