<?xml version="1.0" encoding="utf-8" ?>
<svg xmlns="http://www.w3.org/2000/svg" xmlns:cc="http://creativecommons.org/ns" xmlns:dc="http://purl.org/dc/elements/1.1/" xmlns:ev="http://www.w3.org/2001/xml-events" xmlns:inkscape="http://www.inkscape.org/namespaces/inkscape" xmlns:rdf="http://www.w3.org/1999/02/22-rdf-syntax-ns" xmlns:sodipodi="http://sodipodi.sourceforge.net/DTD/sodipodi-0.dtd" xmlns:xlink="http://www.w3.org/1999/xlink" baseProfile="tiny" height="35.56cm" version="1.2" viewBox="0 0 1056.0 1344.0" width="27.94cm">
  <metadata>
    <rdf:RDF>
      <cc:Work>
        <dc:format>image/svg+xml</dc:format>
        <dc:source/>
        <dc:date>2022-07-09T11:31:25.709437</dc:date>
      </cc:Work>
    </rdf:RDF>
  </metadata>
  <defs/>
  <g fill="none" id="layer1" inkscape:groupmode="layer" inkscape:label="1" stroke="#0000ff" style="display:inline">
    <line x1="36.6614" x2="36.6614" y1="67.2756" y2="142.8661"/>
    <line x1="36.6614" x2="36.6614" y1="180.6614" y2="180.6614"/>
    <line x1="74.4567" x2="112.252" y1="218.4567" y2="180.6614"/>
    <line x1="112.252" x2="112.252" y1="218.4567" y2="256.252"/>
    <line x1="150.0472" x2="187.8425" y1="256.252" y2="256.252"/>
    <line x1="225.6378" x2="225.6378" y1="256.252" y2="256.252"/>
    <line x1="263.4331" x2="263.4331" y1="256.252" y2="256.252"/>
    <line x1="301.2283" x2="301.2283" y1="256.252" y2="218.4567"/>
    <polyline points="263.4331,218.4567 301.2283,180.6614 339.0236,180.6614"/>
    <polyline points="376.8189,180.6614 452.4094,180.6614 376.8189,256.252"/>
    <polygon points="376.8189,294.0472 452.4094,331.8425"/>
    <line x1="414.6142" x2="414.6142" y1="331.8425" y2="369.6378"/>
    <polyline points="376.8189,369.6378 376.8189,331.8425 452.4094,369.6378"/>
    <line x1="452.4094" x2="452.4094" y1="407.4331" y2="445.2283"/>
    <line x1="490.2047" x2="490.2047" y1="445.2283" y2="483.0236"/>
    <line x1="490.2047" x2="565.7953" y1="520.8189" y2="596.4094"/>
    <polygon points="528.0,596.4094 490.2047,558.6142 490.2047,596.4094"/>
    <line x1="528.0" x2="528.0" y1="558.6142" y2="558.6142"/>
    <polyline points="528.0,634.2047 565.7953,672.0 528.0,672.0"/>
    <polyline points="490.2047,672.0 490.2047,634.2047 565.7953,634.2047 565.7953,709.7953"/>
    <line x1="528.0" x2="528.0" y1="747.5906" y2="785.3858"/>
    <line x1="565.7953" x2="528.0" y1="785.3858" y2="823.1811"/>
    <polyline points="490.2047,785.3858 565.7953,823.1811 490.2047,747.5906"/>
    <line x1="452.4094" x2="376.8189" y1="747.5906" y2="823.1811"/>
    <line x1="414.6142" x2="414.6142" y1="823.1811" y2="785.3858"/>
    <polyline points="452.4094,785.3858 376.8189,785.3858 414.6142,747.5906 452.4094,823.1811"/>
    <line x1="452.4094" x2="452.4094" y1="860.9764" y2="898.7717"/>
    <polyline points="490.2047,898.7717 528.0,860.9764 528.0,936.5669"/>
    <line x1="528.0" x2="490.2047" y1="898.7717" y2="936.5669"/>
    <line x1="490.2047" x2="528.0" y1="974.3622" y2="1012.1575"/>
    <polyline points="565.7953,1012.1575 490.2047,1049.9528 565.7953,974.3622"/>
    <line x1="603.5906" x2="641.3858" y1="974.3622" y2="1049.9528"/>
    <polyline points="641.3858,1012.1575 603.5906,974.3622 603.5906,1049.9528 641.3858,974.3622 679.1811,974.3622"/>
    <polyline points="679.1811,898.7717 641.3858,860.9764 603.5906,936.5669 641.3858,936.5669 603.5906,898.7717"/>
    <line x1="603.5906" x2="641.3858" y1="936.5669" y2="860.9764"/>
    <polyline points="641.3858,823.1811 641.3858,785.3858 679.1811,823.1811"/>
    <polyline points="716.9764,823.1811 716.9764,747.5906 792.5669,747.5906 754.7717,747.5906"/>
    <line x1="792.5669" x2="754.7717" y1="747.5906" y2="785.3858"/>
    <line x1="754.7717" x2="716.9764" y1="823.1811" y2="785.3858"/>
    <line x1="641.3858" x2="641.3858" y1="785.3858" y2="747.5906"/>
    <line x1="641.3858" x2="679.1811" y1="709.7953" y2="672.0"/>
    <polyline points="679.1811,709.7953 603.5906,634.2047 641.3858,672.0 641.3858,634.2047"/>
    <polyline points="641.3858,596.4094 603.5906,596.4094 679.1811,520.8189"/>
    <polyline points="679.1811,558.6142 603.5906,558.6142 679.1811,596.4094"/>
    <line x1="716.9764" x2="716.9764" y1="596.4094" y2="520.8189"/>
    <line x1="716.9764" x2="754.7717" y1="558.6142" y2="558.6142"/>
    <polyline points="792.5669,558.6142 792.5669,596.4094 792.5669,520.8189"/>
    <polyline points="830.3622,520.8189 905.9528,520.8189 868.1575,596.4094"/>
    <line x1="905.9528" x2="830.3622" y1="634.2047" y2="709.7953"/>
    <polyline points="830.3622,672.0 868.1575,709.7953 830.3622,634.2047"/>
    <line x1="792.5669" x2="754.7717" y1="672.0" y2="672.0"/>
    <line x1="754.7717" x2="754.7717" y1="709.7953" y2="634.2047"/>
    <polygon points="716.9764,709.7953 792.5669,672.0 716.9764,634.2047"/>
    <line x1="830.3622" x2="868.1575" y1="747.5906" y2="747.5906"/>
    <polyline points="905.9528,785.3858 868.1575,785.3858 830.3622,747.5906 830.3622,785.3858"/>
    <line x1="868.1575" x2="868.1575" y1="823.1811" y2="823.1811"/>
    <line x1="830.3622" x2="830.3622" y1="860.9764" y2="898.7717"/>
    <polyline points="830.3622,936.5669 868.1575,936.5669 905.9528,860.9764 905.9528,936.5669"/>
    <polyline points="905.9528,974.3622 868.1575,1012.1575 905.9528,1049.9528 830.3622,1012.1575"/>
    <polyline points="792.5669,974.3622 716.9764,974.3622 716.9764,1012.1575 792.5669,1049.9528 754.7717,1012.1575"/>
    <line x1="754.7717" x2="754.7717" y1="1087.748" y2="1163.3386"/>
    <polyline points="792.5669,1163.3386 792.5669,1087.748 716.9764,1125.5433"/>
    <line x1="716.9764" x2="716.9764" y1="1163.3386" y2="1163.3386"/>
    <polyline points="679.1811,1163.3386 603.5906,1087.748 641.3858,1163.3386 641.3858,1087.748 679.1811,1125.5433"/>
    <line x1="603.5906" x2="603.5906" y1="1125.5433" y2="1163.3386"/>
    <polygon points="565.7953,1163.3386 565.7953,1087.748"/>
    <line x1="528.0" x2="528.0" y1="1201.1339" y2="1201.1339"/>
    <polyline points="528.0,1238.9291 565.7953,1276.7244 565.7953,1238.9291 490.2047,1238.9291"/>
    <polyline points="452.4094,1238.9291 376.8189,1238.9291 414.6142,1201.1339"/>
    <polyline points="414.6142,1163.3386 376.8189,1163.3386 414.6142,1087.748 452.4094,1163.3386"/>
    <polyline points="490.2047,1163.3386 490.2047,1125.5433 490.2047,1163.3386 528.0,1087.748"/>
    <line x1="528.0" x2="490.2047" y1="1049.9528" y2="1012.1575"/>
    <line x1="452.4094" x2="376.8189" y1="974.3622" y2="974.3622"/>
    <polyline points="414.6142,974.3622 452.4094,1049.9528 376.8189,1012.1575 414.6142,1012.1575"/>
    <line x1="414.6142" x2="452.4094" y1="1049.9528" y2="1049.9528"/>
    <line x1="452.4094" x2="376.8189" y1="1087.748" y2="1125.5433"/>
    <line x1="414.6142" x2="452.4094" y1="1125.5433" y2="1125.5433"/>
    <line x1="339.0236" x2="301.2283" y1="1125.5433" y2="1087.748"/>
    <polyline points="263.4331,1087.748 263.4331,1125.5433 339.0236,1163.3386 301.2283,1087.748 339.0236,1163.3386"/>
    <polyline points="339.0236,1238.9291 339.0236,1276.7244 263.4331,1201.1339"/>
    <line x1="225.6378" x2="187.8425" y1="1201.1339" y2="1238.9291"/>
    <polyline points="150.0472,1238.9291 187.8425,1238.9291 150.0472,1201.1339"/>
    <line x1="187.8425" x2="225.6378" y1="1201.1339" y2="1276.7244"/>
    <polyline points="263.4331,1238.9291 301.2283,1276.7244 301.2283,1238.9291 301.2283,1276.7244"/>
    <line x1="376.8189" x2="452.4094" y1="1276.7244" y2="1276.7244"/>
    <line x1="414.6142" x2="414.6142" y1="1276.7244" y2="1238.9291"/>
    <line x1="528.0" x2="565.7953" y1="1276.7244" y2="1238.9291"/>
    <polyline points="603.5906,1238.9291 679.1811,1238.9291 641.3858,1201.1339"/>
    <polyline points="603.5906,1201.1339 641.3858,1276.7244 603.5906,1276.7244 679.1811,1276.7244"/>
    <polygon points="716.9764,1276.7244 716.9764,1238.9291"/>
    <line x1="754.7717" x2="792.5669" y1="1238.9291" y2="1201.1339"/>
    <line x1="792.5669" x2="716.9764" y1="1238.9291" y2="1201.1339"/>
    <line x1="754.7717" x2="792.5669" y1="1125.5433" y2="1087.748"/>
    <polyline points="830.3622,1087.748 905.9528,1163.3386 905.9528,1125.5433 830.3622,1163.3386"/>
    <polyline points="830.3622,1125.5433 905.9528,1163.3386 905.9528,1125.5433"/>
    <line x1="943.748" x2="943.748" y1="1125.5433" y2="1087.748"/>
    <polyline points="981.5433,1087.748 1019.3386,1163.3386 1019.3386,1125.5433 943.748,1163.3386 981.5433,1125.5433"/>
    <polyline points="1019.3386,1049.9528 981.5433,974.3622 943.748,1049.9528 981.5433,1049.9528 981.5433,974.3622 981.5433,1012.1575"/>
    <line x1="981.5433" x2="943.748" y1="936.5669" y2="860.9764"/>
    <line x1="905.9528" x2="868.1575" y1="898.7717" y2="936.5669"/>
    <polyline points="792.5669,898.7717 716.9764,898.7717 754.7717,936.5669 716.9764,860.9764 792.5669,860.9764"/>
    <line x1="754.7717" x2="716.9764" y1="898.7717" y2="860.9764"/>
    <polygon points="603.5906,785.3858 679.1811,785.3858"/>
    <polyline points="565.7953,860.9764 565.7953,898.7717 490.2047,860.9764"/>
    <polyline points="414.6142,898.7717 452.4094,860.9764 414.6142,860.9764 452.4094,898.7717 376.8189,936.5669"/>
    <line x1="339.0236" x2="301.2283" y1="898.7717" y2="860.9764"/>
    <line x1="301.2283" x2="301.2283" y1="823.1811" y2="747.5906"/>
    <polyline points="263.4331,747.5906 339.0236,747.5906 301.2283,823.1811 301.2283,785.3858"/>
    <line x1="263.4331" x2="339.0236" y1="785.3858" y2="785.3858"/>
    <line x1="339.0236" x2="263.4331" y1="860.9764" y2="936.5669"/>
    <polygon points="301.2283,936.5669 263.4331,860.9764 301.2283,898.7717"/>
    <polyline points="225.6378,898.7717 150.0472,860.9764 225.6378,860.9764 225.6378,898.7717 187.8425,936.5669"/>
    <line x1="187.8425" x2="150.0472" y1="898.7717" y2="936.5669"/>
    <polyline points="112.252,974.3622 112.252,1012.1575 74.4567,974.3622 112.252,974.3622 74.4567,1012.1575"/>
    <line x1="74.4567" x2="74.4567" y1="1049.9528" y2="1049.9528"/>
    <polyline points="74.4567,1087.748 36.6614,1125.5433 74.4567,1125.5433 112.252,1163.3386 36.6614,1125.5433"/>
    <polyline points="74.4567,1201.1339 36.6614,1238.9291 74.4567,1238.9291"/>
    <polyline points="36.6614,1238.9291 112.252,1201.1339 36.6614,1276.7244"/>
    <line x1="74.4567" x2="112.252" y1="1276.7244" y2="1201.1339"/>
    <line x1="187.8425" x2="225.6378" y1="1163.3386" y2="1163.3386"/>
    <polyline points="225.6378,1087.748 187.8425,1163.3386 150.0472,1125.5433 150.0472,1087.748"/>
    <line x1="187.8425" x2="225.6378" y1="1049.9528" y2="974.3622"/>
    <line x1="225.6378" x2="150.0472" y1="1012.1575" y2="1012.1575"/>
    <line x1="112.252" x2="74.4567" y1="898.7717" y2="898.7717"/>
    <polyline points="36.6614,936.5669 74.4567,936.5669 74.4567,860.9764 36.6614,860.9764"/>
    <polyline points="36.6614,823.1811 36.6614,785.3858 112.252,785.3858"/>
    <line x1="112.252" x2="112.252" y1="823.1811" y2="823.1811"/>
    <line x1="150.0472" x2="187.8425" y1="823.1811" y2="823.1811"/>
    <polyline points="225.6378,785.3858 225.6378,823.1811 187.8425,785.3858 187.8425,747.5906"/>
    <line x1="150.0472" x2="150.0472" y1="747.5906" y2="747.5906"/>
    <line x1="112.252" x2="36.6614" y1="747.5906" y2="747.5906"/>
    <polyline points="74.4567,709.7953 36.6614,709.7953 74.4567,672.0"/>
    <line x1="36.6614" x2="112.252" y1="672.0" y2="634.2047"/>
    <polyline points="150.0472,634.2047 187.8425,709.7953 187.8425,634.2047 225.6378,634.2047"/>
    <line x1="263.4331" x2="301.2283" y1="634.2047" y2="634.2047"/>
    <polyline points="301.2283,672.0 339.0236,709.7953 263.4331,709.7953"/>
    <line x1="225.6378" x2="187.8425" y1="709.7953" y2="709.7953"/>
    <line x1="74.4567" x2="36.6614" y1="634.2047" y2="634.2047"/>
    <polyline points="74.4567,558.6142 112.252,558.6142 36.6614,558.6142 74.4567,596.4094 112.252,520.8189"/>
    <polyline points="112.252,483.0236 112.252,407.4331 36.6614,445.2283 112.252,445.2283"/>
    <polyline points="150.0472,445.2283 225.6378,407.4331 150.0472,483.0236"/>
    <polyline points="187.8425,483.0236 150.0472,445.2283 187.8425,445.2283 187.8425,407.4331"/>
    <polyline points="187.8425,369.6378 225.6378,294.0472 150.0472,331.8425 150.0472,369.6378"/>
    <polyline points="150.0472,331.8425 187.8425,331.8425 150.0472,294.0472"/>
    <polyline points="112.252,331.8425 74.4567,294.0472 74.4567,369.6378"/>
    <polyline points="74.4567,331.8425 112.252,331.8425 36.6614,369.6378"/>
    <line x1="74.4567" x2="36.6614" y1="407.4331" y2="445.2283"/>
    <line x1="74.4567" x2="74.4567" y1="294.0472" y2="294.0472"/>
    <polygon points="36.6614,256.252 74.4567,256.252"/>
    <polyline points="74.4567,142.8661 74.4567,67.2756 112.252,105.0709"/>
    <line x1="112.252" x2="112.252" y1="67.2756" y2="142.8661"/>
    <polyline points="150.0472,142.8661 150.0472,105.0709 187.8425,105.0709"/>
    <line x1="187.8425" x2="150.0472" y1="142.8661" y2="67.2756"/>
    <line x1="74.4567" x2="36.6614" y1="105.0709" y2="105.0709"/>
    <polyline points="187.8425,180.6614 225.6378,256.252 225.6378,218.4567"/>
    <line x1="263.4331" x2="339.0236" y1="142.8661" y2="105.0709"/>
    <polyline points="339.0236,67.2756 263.4331,105.0709 339.0236,142.8661 301.2283,105.0709"/>
    <line x1="376.8189" x2="376.8189" y1="105.0709" y2="105.0709"/>
    <polyline points="414.6142,105.0709 452.4094,67.2756 414.6142,142.8661 376.8189,67.2756"/>
    <line x1="490.2047" x2="490.2047" y1="67.2756" y2="142.8661"/>
    <line x1="490.2047" x2="528.0" y1="180.6614" y2="218.4567"/>
    <polyline points="490.2047,218.4567 528.0,180.6614 565.7953,256.252 565.7953,180.6614"/>
    <polyline points="565.7953,142.8661 490.2047,105.0709 528.0,105.0709"/>
    <line x1="565.7953" x2="490.2047" y1="105.0709" y2="105.0709"/>
    <line x1="528.0" x2="528.0" y1="67.2756" y2="142.8661"/>
    <polyline points="603.5906,142.8661 641.3858,142.8661 603.5906,67.2756 641.3858,105.0709"/>
    <line x1="679.1811" x2="603.5906" y1="105.0709" y2="67.2756"/>
    <line x1="603.5906" x2="679.1811" y1="105.0709" y2="142.8661"/>
    <polyline points="679.1811,180.6614 603.5906,180.6614 679.1811,256.252"/>
    <polyline points="679.1811,294.0472 679.1811,369.6378 641.3858,369.6378"/>
    <polyline points="679.1811,331.8425 679.1811,369.6378 603.5906,369.6378 603.5906,331.8425"/>
    <polyline points="565.7953,331.8425 565.7953,369.6378 490.2047,294.0472 490.2047,331.8425 528.0,331.8425"/>
    <line x1="565.7953" x2="490.2047" y1="294.0472" y2="294.0472"/>
    <line x1="490.2047" x2="490.2047" y1="256.252" y2="256.252"/>
    <line x1="452.4094" x2="414.6142" y1="256.252" y2="218.4567"/>
    <line x1="339.0236" x2="301.2283" y1="331.8425" y2="294.0472"/>
    <polyline points="301.2283,369.6378 263.4331,331.8425 301.2283,331.8425 339.0236,369.6378"/>
    <line x1="339.0236" x2="263.4331" y1="407.4331" y2="483.0236"/>
    <line x1="263.4331" x2="263.4331" y1="520.8189" y2="520.8189"/>
    <polyline points="225.6378,520.8189 225.6378,558.6142 187.8425,558.6142 150.0472,520.8189 150.0472,558.6142"/>
    <polyline points="263.4331,558.6142 301.2283,520.8189 263.4331,558.6142 263.4331,596.4094 339.0236,520.8189"/>
    <line x1="339.0236" x2="263.4331" y1="483.0236" y2="445.2283"/>
    <polyline points="263.4331,407.4331 301.2283,445.2283 339.0236,445.2283"/>
    <line x1="376.8189" x2="414.6142" y1="445.2283" y2="407.4331"/>
    <polyline points="414.6142,445.2283 376.8189,445.2283 452.4094,483.0236"/>
    <line x1="414.6142" x2="376.8189" y1="483.0236" y2="483.0236"/>
    <line x1="376.8189" x2="414.6142" y1="520.8189" y2="520.8189"/>
    <polyline points="376.8189,558.6142 452.4094,558.6142 376.8189,596.4094 414.6142,596.4094"/>
    <polyline points="414.6142,672.0 414.6142,709.7953 452.4094,709.7953 414.6142,709.7953"/>
    <polyline points="376.8189,709.7953 414.6142,634.2047 452.4094,672.0"/>
    <polyline points="339.0236,672.0 301.2283,709.7953 339.0236,634.2047"/>
    <polyline points="528.0,445.2283 490.2047,483.0236 565.7953,483.0236"/>
    <polyline points="565.7953,407.4331 528.0,483.0236 528.0,407.4331"/>
    <polygon points="641.3858,445.2283 679.1811,445.2283 641.3858,445.2283 641.3858,407.4331 679.1811,445.2283"/>
    <line x1="716.9764" x2="754.7717" y1="369.6378" y2="331.8425"/>
    <polyline points="716.9764,331.8425 792.5669,294.0472 754.7717,294.0472 792.5669,294.0472 792.5669,369.6378"/>
    <polyline points="792.5669,407.4331 754.7717,407.4331 716.9764,445.2283 754.7717,483.0236"/>
    <polyline points="754.7717,445.2283 754.7717,407.4331 792.5669,445.2283"/>
    <polygon points="830.3622,445.2283 830.3622,483.0236"/>
    <line x1="830.3622" x2="830.3622" y1="445.2283" y2="445.2283"/>
    <polyline points="830.3622,407.4331 868.1575,483.0236 905.9528,483.0236"/>
    <polyline points="905.9528,520.8189 830.3622,558.6142 868.1575,520.8189"/>
    <line x1="943.748" x2="1019.3386" y1="520.8189" y2="558.6142"/>
    <polyline points="981.5433,520.8189 1019.3386,520.8189 1019.3386,558.6142 1019.3386,520.8189 943.748,596.4094"/>
    <polyline points="943.748,634.2047 1019.3386,672.0 943.748,672.0 981.5433,709.7953 943.748,634.2047 943.748,709.7953"/>
    <line x1="943.748" x2="1019.3386" y1="747.5906" y2="785.3858"/>
    <polyline points="1019.3386,747.5906 943.748,785.3858 981.5433,823.1811 981.5433,747.5906"/>
    <polyline points="905.9528,672.0 905.9528,634.2047 868.1575,672.0"/>
    <line x1="943.748" x2="943.748" y1="483.0236" y2="407.4331"/>
    <polyline points="905.9528,369.6378 905.9528,294.0472 868.1575,369.6378"/>
    <polyline points="905.9528,331.8425 830.3622,369.6378 830.3622,294.0472"/>
    <polyline points="868.1575,256.252 830.3622,180.6614 905.9528,256.252"/>
    <polyline points="905.9528,218.4567 830.3622,218.4567 868.1575,218.4567 868.1575,180.6614"/>
    <line x1="905.9528" x2="830.3622" y1="142.8661" y2="105.0709"/>
    <line x1="830.3622" x2="905.9528" y1="142.8661" y2="105.0709"/>
    <line x1="943.748" x2="1019.3386" y1="105.0709" y2="142.8661"/>
    <polyline points="1019.3386,180.6614 981.5433,218.4567 1019.3386,256.252 943.748,218.4567"/>
    <line x1="981.5433" x2="981.5433" y1="218.4567" y2="256.252"/>
    <line x1="943.748" x2="981.5433" y1="294.0472" y2="369.6378"/>
    <polyline points="943.748,331.8425 943.748,369.6378 943.748,294.0472 1019.3386,369.6378 1019.3386,331.8425"/>
    <line x1="1019.3386" x2="1019.3386" y1="218.4567" y2="218.4567"/>
    <polyline points="981.5433,142.8661 943.748,105.0709 981.5433,67.2756"/>
    <line x1="981.5433" x2="1019.3386" y1="105.0709" y2="67.2756"/>
    <line x1="1019.3386" x2="943.748" y1="105.0709" y2="142.8661"/>
    <polygon points="868.1575,67.2756 868.1575,105.0709 830.3622,67.2756"/>
    <line x1="792.5669" x2="716.9764" y1="105.0709" y2="67.2756"/>
    <polyline points="716.9764,105.0709 754.7717,142.8661 754.7717,105.0709 792.5669,142.8661 754.7717,142.8661"/>
    <line x1="754.7717" x2="792.5669" y1="180.6614" y2="180.6614"/>
    <line x1="792.5669" x2="716.9764" y1="218.4567" y2="256.252"/>
    <line x1="679.1811" x2="603.5906" y1="218.4567" y2="256.252"/>
    <polyline points="603.5906,218.4567 641.3858,256.252 641.3858,180.6614"/>
    <polygon points="716.9764,180.6614 754.7717,256.252"/>
    <line x1="981.5433" x2="981.5433" y1="445.2283" y2="483.0236"/>
    <polyline points="1019.3386,483.0236 981.5433,445.2283 981.5433,483.0236 1019.3386,445.2283"/>
    <line x1="641.3858" x2="641.3858" y1="558.6142" y2="558.6142"/>
    <line x1="263.4331" x2="263.4331" y1="369.6378" y2="369.6378"/>
    <polyline points="263.4331,1049.9528 263.4331,1012.1575 263.4331,1049.9528 301.2283,974.3622 301.2283,1012.1575 339.0236,1049.9528"/>
    <line x1="565.7953" x2="565.7953" y1="1049.9528" y2="1049.9528"/>
    <polyline points="830.3622,1238.9291 868.1575,1276.7244 830.3622,1238.9291 905.9528,1276.7244 905.9528,1201.1339"/>
    <line x1="868.1575" x2="868.1575" y1="1201.1339" y2="1201.1339"/>
    <polyline points="943.748,1201.1339 1019.3386,1276.7244 981.5433,1276.7244 981.5433,1238.9291"/>
    <line x1="1019.3386" x2="1019.3386" y1="1238.9291" y2="1201.1339"/>
    <polyline points="1019.3386,898.7717 981.5433,936.5669 1019.3386,898.7717 981.5433,898.7717 1019.3386,860.9764"/>
  </g>
</svg>
