<?xml version="1.0" encoding="utf-8" ?>
<svg xmlns="http://www.w3.org/2000/svg" xmlns:cc="http://creativecommons.org/ns" xmlns:dc="http://purl.org/dc/elements/1.1/" xmlns:ev="http://www.w3.org/2001/xml-events" xmlns:inkscape="http://www.inkscape.org/namespaces/inkscape" xmlns:rdf="http://www.w3.org/1999/02/22-rdf-syntax-ns" xmlns:sodipodi="http://sodipodi.sourceforge.net/DTD/sodipodi-0.dtd" xmlns:xlink="http://www.w3.org/1999/xlink" baseProfile="tiny" height="35.56cm" version="1.2" viewBox="0 0 1056.0 1344.0" width="27.94cm">
  <metadata>
    <rdf:RDF>
      <cc:Work>
        <dc:format>image/svg+xml</dc:format>
        <dc:source/>
        <dc:date>2022-07-10T09:57:46.465696</dc:date>
      </cc:Work>
    </rdf:RDF>
  </metadata>
  <defs/>
  <g fill="none" id="layer1" inkscape:groupmode="layer" inkscape:label="1" stroke="#0000ff" style="display:inline">
    <line x1="112.252" x2="36.6614" y1="142.8661" y2="142.8661"/>
    <line x1="112.252" x2="36.6614" y1="218.4567" y2="256.252"/>
    <line x1="112.252" x2="112.252" y1="294.0472" y2="369.6378"/>
    <line x1="150.0472" x2="225.6378" y1="369.6378" y2="331.8425"/>
    <line x1="263.4331" x2="301.2283" y1="256.252" y2="180.6614"/>
    <line x1="225.6378" x2="150.0472" y1="218.4567" y2="180.6614"/>
    <line x1="150.0472" x2="225.6378" y1="142.8661" y2="142.8661"/>
    <line x1="263.4331" x2="263.4331" y1="105.0709" y2="67.2756"/>
    <line x1="376.8189" x2="414.6142" y1="142.8661" y2="67.2756"/>
    <line x1="490.2047" x2="528.0" y1="142.8661" y2="67.2756"/>
    <line x1="603.5906" x2="603.5906" y1="67.2756" y2="105.0709"/>
    <line x1="641.3858" x2="603.5906" y1="218.4567" y2="256.252"/>
    <line x1="565.7953" x2="528.0" y1="256.252" y2="256.252"/>
    <line x1="565.7953" x2="490.2047" y1="331.8425" y2="369.6378"/>
    <line x1="528.0" x2="565.7953" y1="407.4331" y2="483.0236"/>
    <line x1="565.7953" x2="528.0" y1="520.8189" y2="520.8189"/>
    <line x1="452.4094" x2="376.8189" y1="483.0236" y2="407.4331"/>
    <line x1="414.6142" x2="414.6142" y1="369.6378" y2="331.8425"/>
    <line x1="339.0236" x2="339.0236" y1="369.6378" y2="294.0472"/>
    <line x1="414.6142" x2="452.4094" y1="218.4567" y2="218.4567"/>
    <line x1="641.3858" x2="641.3858" y1="294.0472" y2="369.6378"/>
    <line x1="603.5906" x2="603.5906" y1="445.2283" y2="483.0236"/>
    <line x1="679.1811" x2="679.1811" y1="520.8189" y2="596.4094"/>
    <line x1="716.9764" x2="754.7717" y1="596.4094" y2="596.4094"/>
    <line x1="754.7717" x2="716.9764" y1="634.2047" y2="634.2047"/>
    <line x1="679.1811" x2="679.1811" y1="672.0" y2="709.7953"/>
    <line x1="641.3858" x2="679.1811" y1="747.5906" y2="785.3858"/>
    <line x1="716.9764" x2="792.5669" y1="747.5906" y2="747.5906"/>
    <line x1="830.3622" x2="868.1575" y1="823.1811" y2="823.1811"/>
    <line x1="868.1575" x2="905.9528" y1="860.9764" y2="936.5669"/>
    <line x1="868.1575" x2="905.9528" y1="974.3622" y2="1049.9528"/>
    <line x1="943.748" x2="943.748" y1="1049.9528" y2="1012.1575"/>
    <line x1="943.748" x2="1019.3386" y1="1087.748" y2="1163.3386"/>
    <line x1="1019.3386" x2="981.5433" y1="1201.1339" y2="1276.7244"/>
    <line x1="905.9528" x2="868.1575" y1="1238.9291" y2="1238.9291"/>
    <line x1="754.7717" x2="754.7717" y1="1238.9291" y2="1276.7244"/>
    <line x1="679.1811" x2="679.1811" y1="1276.7244" y2="1201.1339"/>
    <line x1="754.7717" x2="792.5669" y1="1125.5433" y2="1087.748"/>
    <line x1="830.3622" x2="905.9528" y1="1125.5433" y2="1125.5433"/>
    <line x1="792.5669" x2="754.7717" y1="974.3622" y2="974.3622"/>
    <line x1="716.9764" x2="754.7717" y1="936.5669" y2="860.9764"/>
    <line x1="679.1811" x2="679.1811" y1="860.9764" y2="898.7717"/>
    <line x1="603.5906" x2="679.1811" y1="974.3622" y2="1012.1575"/>
    <line x1="679.1811" x2="641.3858" y1="1087.748" y2="1087.748"/>
    <line x1="528.0" x2="528.0" y1="1125.5433" y2="1163.3386"/>
    <line x1="565.7953" x2="490.2047" y1="1201.1339" y2="1276.7244"/>
    <line x1="452.4094" x2="414.6142" y1="1276.7244" y2="1201.1339"/>
    <line x1="414.6142" x2="414.6142" y1="1125.5433" y2="1087.748"/>
    <line x1="376.8189" x2="452.4094" y1="1049.9528" y2="1012.1575"/>
    <line x1="490.2047" x2="528.0" y1="974.3622" y2="1012.1575"/>
    <line x1="528.0" x2="565.7953" y1="936.5669" y2="860.9764"/>
    <line x1="490.2047" x2="490.2047" y1="785.3858" y2="747.5906"/>
    <line x1="414.6142" x2="376.8189" y1="785.3858" y2="823.1811"/>
    <line x1="414.6142" x2="414.6142" y1="860.9764" y2="898.7717"/>
    <line x1="339.0236" x2="263.4331" y1="860.9764" y2="860.9764"/>
    <line x1="225.6378" x2="187.8425" y1="898.7717" y2="860.9764"/>
    <line x1="112.252" x2="36.6614" y1="898.7717" y2="936.5669"/>
    <line x1="74.4567" x2="36.6614" y1="1012.1575" y2="1049.9528"/>
    <line x1="74.4567" x2="112.252" y1="1087.748" y2="1125.5433"/>
    <line x1="150.0472" x2="225.6378" y1="1125.5433" y2="1087.748"/>
    <line x1="225.6378" x2="150.0472" y1="1049.9528" y2="1049.9528"/>
    <line x1="263.4331" x2="263.4331" y1="1012.1575" y2="974.3622"/>
    <line x1="263.4331" x2="301.2283" y1="1125.5433" y2="1163.3386"/>
    <line x1="263.4331" x2="301.2283" y1="1201.1339" y2="1238.9291"/>
    <line x1="225.6378" x2="150.0472" y1="1238.9291" y2="1201.1339"/>
    <line x1="112.252" x2="112.252" y1="1201.1339" y2="1238.9291"/>
    <line x1="74.4567" x2="36.6614" y1="823.1811" y2="823.1811"/>
    <line x1="150.0472" x2="187.8425" y1="747.5906" y2="747.5906"/>
    <line x1="225.6378" x2="150.0472" y1="709.7953" y2="672.0"/>
    <line x1="112.252" x2="74.4567" y1="634.2047" y2="634.2047"/>
    <line x1="74.4567" x2="36.6614" y1="558.6142" y2="558.6142"/>
    <line x1="112.252" x2="74.4567" y1="483.0236" y2="407.4331"/>
    <line x1="150.0472" x2="150.0472" y1="407.4331" y2="445.2283"/>
    <line x1="225.6378" x2="225.6378" y1="520.8189" y2="558.6142"/>
    <line x1="301.2283" x2="339.0236" y1="558.6142" y2="520.8189"/>
    <line x1="263.4331" x2="263.4331" y1="445.2283" y2="407.4331"/>
    <line x1="301.2283" x2="263.4331" y1="634.2047" y2="672.0"/>
    <line x1="301.2283" x2="339.0236" y1="747.5906" y2="747.5906"/>
    <line x1="414.6142" x2="414.6142" y1="672.0" y2="634.2047"/>
    <line x1="414.6142" x2="452.4094" y1="596.4094" y2="596.4094"/>
    <line x1="528.0" x2="565.7953" y1="672.0" y2="672.0"/>
    <line x1="754.7717" x2="716.9764" y1="483.0236" y2="445.2283"/>
    <line x1="754.7717" x2="792.5669" y1="369.6378" y2="294.0472"/>
    <line x1="754.7717" x2="754.7717" y1="256.252" y2="180.6614"/>
    <line x1="754.7717" x2="754.7717" y1="105.0709" y2="67.2756"/>
    <line x1="830.3622" x2="868.1575" y1="142.8661" y2="67.2756"/>
    <line x1="905.9528" x2="830.3622" y1="180.6614" y2="218.4567"/>
    <line x1="905.9528" x2="868.1575" y1="331.8425" y2="369.6378"/>
    <line x1="868.1575" x2="830.3622" y1="483.0236" y2="483.0236"/>
    <line x1="905.9528" x2="905.9528" y1="520.8189" y2="596.4094"/>
    <line x1="905.9528" x2="868.1575" y1="672.0" y2="672.0"/>
    <line x1="981.5433" x2="1019.3386" y1="709.7953" y2="672.0"/>
    <line x1="1019.3386" x2="981.5433" y1="747.5906" y2="823.1811"/>
    <line x1="943.748" x2="981.5433" y1="860.9764" y2="898.7717"/>
    <line x1="1019.3386" x2="943.748" y1="520.8189" y2="520.8189"/>
    <line x1="1019.3386" x2="1019.3386" y1="483.0236" y2="407.4331"/>
    <line x1="1019.3386" x2="1019.3386" y1="369.6378" y2="294.0472"/>
    <line x1="981.5433" x2="981.5433" y1="218.4567" y2="180.6614"/>
    <line x1="981.5433" x2="1019.3386" y1="142.8661" y2="67.2756"/>
  </g>
  <g fill="none" id="layer2" inkscape:groupmode="layer" inkscape:label="2" stroke="#008800" style="display:inline">
    <line x1="36.6614" x2="36.6614" y1="105.0709" y2="67.2756"/>
    <line x1="187.8425" x2="225.6378" y1="67.2756" y2="105.0709"/>
    <line x1="263.4331" x2="339.0236" y1="142.8661" y2="105.0709"/>
    <line x1="263.4331" x2="263.4331" y1="180.6614" y2="218.4567"/>
    <line x1="225.6378" x2="150.0472" y1="256.252" y2="256.252"/>
    <line x1="74.4567" x2="36.6614" y1="218.4567" y2="218.4567"/>
    <line x1="36.6614" x2="36.6614" y1="331.8425" y2="369.6378"/>
    <line x1="112.252" x2="112.252" y1="407.4331" y2="445.2283"/>
    <line x1="187.8425" x2="225.6378" y1="520.8189" y2="596.4094"/>
    <line x1="263.4331" x2="339.0236" y1="596.4094" y2="558.6142"/>
    <line x1="376.8189" x2="452.4094" y1="558.6142" y2="558.6142"/>
    <line x1="490.2047" x2="528.0" y1="558.6142" y2="558.6142"/>
    <line x1="603.5906" x2="641.3858" y1="520.8189" y2="596.4094"/>
    <line x1="679.1811" x2="603.5906" y1="634.2047" y2="709.7953"/>
    <line x1="603.5906" x2="679.1811" y1="747.5906" y2="823.1811"/>
    <line x1="754.7717" x2="792.5669" y1="823.1811" y2="785.3858"/>
    <line x1="792.5669" x2="792.5669" y1="860.9764" y2="936.5669"/>
    <line x1="792.5669" x2="754.7717" y1="1012.1575" y2="1012.1575"/>
    <line x1="830.3622" x2="868.1575" y1="1012.1575" y2="1049.9528"/>
    <line x1="868.1575" x2="905.9528" y1="1087.748" y2="1087.748"/>
    <line x1="981.5433" x2="943.748" y1="1049.9528" y2="974.3622"/>
    <line x1="981.5433" x2="1019.3386" y1="936.5669" y2="936.5669"/>
    <line x1="905.9528" x2="905.9528" y1="898.7717" y2="860.9764"/>
    <line x1="905.9528" x2="905.9528" y1="823.1811" y2="785.3858"/>
    <line x1="981.5433" x2="981.5433" y1="785.3858" y2="747.5906"/>
    <line x1="981.5433" x2="1019.3386" y1="634.2047" y2="634.2047"/>
    <line x1="981.5433" x2="981.5433" y1="596.4094" y2="558.6142"/>
    <line x1="905.9528" x2="868.1575" y1="483.0236" y2="445.2283"/>
    <line x1="868.1575" x2="830.3622" y1="520.8189" y2="558.6142"/>
    <line x1="754.7717" x2="754.7717" y1="558.6142" y2="520.8189"/>
    <line x1="679.1811" x2="679.1811" y1="445.2283" y2="407.4331"/>
    <line x1="716.9764" x2="754.7717" y1="407.4331" y2="407.4331"/>
    <line x1="754.7717" x2="716.9764" y1="331.8425" y2="294.0472"/>
    <line x1="679.1811" x2="679.1811" y1="294.0472" y2="331.8425"/>
    <line x1="716.9764" x2="716.9764" y1="218.4567" y2="180.6614"/>
    <line x1="679.1811" x2="641.3858" y1="180.6614" y2="180.6614"/>
    <line x1="641.3858" x2="679.1811" y1="105.0709" y2="67.2756"/>
    <line x1="754.7717" x2="792.5669" y1="142.8661" y2="142.8661"/>
    <line x1="868.1575" x2="905.9528" y1="105.0709" y2="105.0709"/>
    <line x1="943.748" x2="981.5433" y1="142.8661" y2="67.2756"/>
    <line x1="943.748" x2="1019.3386" y1="218.4567" y2="256.252"/>
    <line x1="981.5433" x2="943.748" y1="331.8425" y2="294.0472"/>
    <line x1="868.1575" x2="905.9528" y1="256.252" y2="218.4567"/>
    <line x1="830.3622" x2="868.1575" y1="294.0472" y2="331.8425"/>
    <line x1="943.748" x2="981.5433" y1="407.4331" y2="445.2283"/>
    <line x1="792.5669" x2="716.9764" y1="634.2047" y2="672.0"/>
    <line x1="830.3622" x2="868.1575" y1="709.7953" y2="709.7953"/>
    <line x1="565.7953" x2="528.0" y1="747.5906" y2="823.1811"/>
    <line x1="490.2047" x2="490.2047" y1="860.9764" y2="936.5669"/>
    <line x1="414.6142" x2="376.8189" y1="936.5669" y2="936.5669"/>
    <line x1="414.6142" x2="376.8189" y1="974.3622" y2="1012.1575"/>
    <line x1="301.2283" x2="301.2283" y1="1012.1575" y2="1049.9528"/>
    <line x1="301.2283" x2="263.4331" y1="1087.748" y2="1087.748"/>
    <line x1="187.8425" x2="150.0472" y1="1012.1575" y2="974.3622"/>
    <line x1="112.252" x2="36.6614" y1="1012.1575" y2="974.3622"/>
    <line x1="74.4567" x2="36.6614" y1="898.7717" y2="860.9764"/>
    <line x1="74.4567" x2="36.6614" y1="785.3858" y2="747.5906"/>
    <line x1="112.252" x2="112.252" y1="709.7953" y2="672.0"/>
    <line x1="187.8425" x2="225.6378" y1="672.0" y2="634.2047"/>
    <line x1="301.2283" x2="339.0236" y1="709.7953" y2="634.2047"/>
    <line x1="452.4094" x2="452.4094" y1="634.2047" y2="672.0"/>
    <line x1="490.2047" x2="528.0" y1="709.7953" y2="709.7953"/>
    <line x1="414.6142" x2="376.8189" y1="747.5906" y2="785.3858"/>
    <line x1="301.2283" x2="263.4331" y1="823.1811" y2="785.3858"/>
    <line x1="225.6378" x2="225.6378" y1="785.3858" y2="747.5906"/>
    <line x1="150.0472" x2="187.8425" y1="860.9764" y2="898.7717"/>
    <line x1="263.4331" x2="301.2283" y1="936.5669" y2="936.5669"/>
    <line x1="490.2047" x2="565.7953" y1="1049.9528" y2="1012.1575"/>
    <line x1="528.0" x2="490.2047" y1="1087.748" y2="1125.5433"/>
    <line x1="452.4094" x2="452.4094" y1="1125.5433" y2="1163.3386"/>
    <line x1="376.8189" x2="414.6142" y1="1238.9291" y2="1276.7244"/>
    <line x1="301.2283" x2="263.4331" y1="1276.7244" y2="1276.7244"/>
    <line x1="187.8425" x2="187.8425" y1="1276.7244" y2="1238.9291"/>
    <line x1="187.8425" x2="150.0472" y1="1163.3386" y2="1163.3386"/>
    <line x1="112.252" x2="36.6614" y1="1163.3386" y2="1087.748"/>
    <line x1="74.4567" x2="74.4567" y1="1201.1339" y2="1276.7244"/>
    <line x1="528.0" x2="565.7953" y1="1276.7244" y2="1276.7244"/>
    <line x1="641.3858" x2="603.5906" y1="1276.7244" y2="1201.1339"/>
    <line x1="641.3858" x2="641.3858" y1="1163.3386" y2="1125.5433"/>
    <line x1="641.3858" x2="679.1811" y1="1049.9528" y2="1049.9528"/>
    <line x1="716.9764" x2="716.9764" y1="1125.5433" y2="1163.3386"/>
    <line x1="716.9764" x2="716.9764" y1="1201.1339" y2="1238.9291"/>
    <line x1="830.3622" x2="905.9528" y1="1238.9291" y2="1201.1339"/>
    <line x1="981.5433" x2="981.5433" y1="1201.1339" y2="1238.9291"/>
    <line x1="1019.3386" x2="1019.3386" y1="1125.5433" y2="1087.748"/>
    <line x1="603.5906" x2="603.5906" y1="898.7717" y2="860.9764"/>
    <line x1="528.0" x2="490.2047" y1="445.2283" y2="445.2283"/>
    <line x1="376.8189" x2="376.8189" y1="445.2283" y2="483.0236"/>
    <line x1="339.0236" x2="263.4331" y1="483.0236" y2="483.0236"/>
    <line x1="225.6378" x2="225.6378" y1="445.2283" y2="407.4331"/>
    <line x1="225.6378" x2="187.8425" y1="369.6378" y2="369.6378"/>
    <line x1="263.4331" x2="301.2283" y1="294.0472" y2="331.8425"/>
    <line x1="376.8189" x2="452.4094" y1="294.0472" y2="294.0472"/>
    <line x1="452.4094" x2="414.6142" y1="256.252" y2="256.252"/>
    <line x1="490.2047" x2="528.0" y1="256.252" y2="218.4567"/>
    <line x1="528.0" x2="528.0" y1="294.0472" y2="331.8425"/>
    <line x1="452.4094" x2="452.4094" y1="142.8661" y2="67.2756"/>
    <line x1="490.2047" x2="490.2047" y1="67.2756" y2="105.0709"/>
    <line x1="112.252" x2="112.252" y1="558.6142" y2="596.4094"/>
  </g>
  <g fill="none" id="layer3" inkscape:groupmode="layer" inkscape:label="3" stroke="#ff0000" style="display:inline">
    <line x1="74.4567" x2="74.4567" y1="105.0709" y2="67.2756"/>
    <line x1="150.0472" x2="187.8425" y1="105.0709" y2="105.0709"/>
    <line x1="187.8425" x2="225.6378" y1="180.6614" y2="180.6614"/>
    <line x1="301.2283" x2="339.0236" y1="105.0709" y2="67.2756"/>
    <line x1="376.8189" x2="376.8189" y1="67.2756" y2="105.0709"/>
    <line x1="376.8189" x2="376.8189" y1="180.6614" y2="256.252"/>
    <line x1="339.0236" x2="339.0236" y1="256.252" y2="218.4567"/>
    <line x1="376.8189" x2="376.8189" y1="331.8425" y2="369.6378"/>
    <line x1="414.6142" x2="452.4094" y1="407.4331" y2="407.4331"/>
    <line x1="490.2047" x2="528.0" y1="483.0236" y2="483.0236"/>
    <line x1="565.7953" x2="565.7953" y1="558.6142" y2="596.4094"/>
    <line x1="565.7953" x2="490.2047" y1="634.2047" y2="672.0"/>
    <line x1="376.8189" x2="376.8189" y1="672.0" y2="634.2047"/>
    <line x1="339.0236" x2="339.0236" y1="672.0" y2="709.7953"/>
    <line x1="301.2283" x2="339.0236" y1="785.3858" y2="823.1811"/>
    <line x1="414.6142" x2="452.4094" y1="823.1811" y2="785.3858"/>
    <line x1="490.2047" x2="528.0" y1="823.1811" y2="785.3858"/>
    <line x1="603.5906" x2="603.5906" y1="785.3858" y2="823.1811"/>
    <line x1="528.0" x2="528.0" y1="860.9764" y2="898.7717"/>
    <line x1="528.0" x2="565.7953" y1="974.3622" y2="974.3622"/>
    <line x1="603.5906" x2="679.1811" y1="936.5669" y2="936.5669"/>
    <line x1="716.9764" x2="716.9764" y1="898.7717" y2="860.9764"/>
    <line x1="716.9764" x2="754.7717" y1="785.3858" y2="785.3858"/>
    <line x1="754.7717" x2="792.5669" y1="709.7953" y2="709.7953"/>
    <line x1="868.1575" x2="905.9528" y1="634.2047" y2="634.2047"/>
    <line x1="943.748" x2="981.5433" y1="634.2047" y2="672.0"/>
    <line x1="1019.3386" x2="1019.3386" y1="596.4094" y2="558.6142"/>
    <line x1="943.748" x2="943.748" y1="483.0236" y2="445.2283"/>
    <line x1="943.748" x2="943.748" y1="369.6378" y2="331.8425"/>
    <line x1="905.9528" x2="868.1575" y1="294.0472" y2="294.0472"/>
    <line x1="792.5669" x2="792.5669" y1="256.252" y2="218.4567"/>
    <line x1="830.3622" x2="868.1575" y1="180.6614" y2="180.6614"/>
    <line x1="868.1575" x2="905.9528" y1="142.8661" y2="142.8661"/>
    <line x1="943.748" x2="943.748" y1="105.0709" y2="67.2756"/>
    <line x1="1019.3386" x2="1019.3386" y1="180.6614" y2="218.4567"/>
    <line x1="868.1575" x2="830.3622" y1="407.4331" y2="445.2283"/>
    <line x1="792.5669" x2="792.5669" y1="483.0236" y2="407.4331"/>
    <line x1="716.9764" x2="716.9764" y1="369.6378" y2="331.8425"/>
    <line x1="641.3858" x2="641.3858" y1="407.4331" y2="445.2283"/>
    <line x1="641.3858" x2="641.3858" y1="520.8189" y2="558.6142"/>
    <line x1="641.3858" x2="603.5906" y1="634.2047" y2="672.0"/>
    <line x1="792.5669" x2="792.5669" y1="596.4094" y2="558.6142"/>
    <line x1="868.1575" x2="868.1575" y1="558.6142" y2="596.4094"/>
    <line x1="905.9528" x2="868.1575" y1="747.5906" y2="785.3858"/>
    <line x1="943.748" x2="943.748" y1="785.3858" y2="823.1811"/>
    <line x1="981.5433" x2="1019.3386" y1="860.9764" y2="860.9764"/>
    <line x1="981.5433" x2="1019.3386" y1="974.3622" y2="1049.9528"/>
    <line x1="943.748" x2="981.5433" y1="1125.5433" y2="1163.3386"/>
    <line x1="905.9528" x2="830.3622" y1="1163.3386" y2="1163.3386"/>
    <line x1="792.5669" x2="754.7717" y1="1163.3386" y2="1163.3386"/>
    <line x1="754.7717" x2="792.5669" y1="1201.1339" y2="1276.7244"/>
    <line x1="830.3622" x2="905.9528" y1="1276.7244" y2="1276.7244"/>
    <line x1="1019.3386" x2="1019.3386" y1="1276.7244" y2="1238.9291"/>
    <line x1="905.9528" x2="905.9528" y1="1012.1575" y2="974.3622"/>
    <line x1="868.1575" x2="830.3622" y1="936.5669" y2="936.5669"/>
    <line x1="754.7717" x2="716.9764" y1="1049.9528" y2="1049.9528"/>
    <line x1="603.5906" x2="603.5906" y1="1049.9528" y2="1012.1575"/>
    <line x1="603.5906" x2="603.5906" y1="1087.748" y2="1163.3386"/>
    <line x1="565.7953" x2="565.7953" y1="1163.3386" y2="1087.748"/>
    <line x1="490.2047" x2="490.2047" y1="1201.1339" y2="1238.9291"/>
    <line x1="414.6142" x2="376.8189" y1="1238.9291" y2="1201.1339"/>
    <line x1="339.0236" x2="339.0236" y1="1163.3386" y2="1087.748"/>
    <line x1="376.8189" x2="376.8189" y1="1087.748" y2="1125.5433"/>
    <line x1="301.2283" x2="339.0236" y1="1201.1339" y2="1276.7244"/>
    <line x1="150.0472" x2="150.0472" y1="1276.7244" y2="1238.9291"/>
    <line x1="74.4567" x2="36.6614" y1="1163.3386" y2="1125.5433"/>
    <line x1="36.6614" x2="36.6614" y1="1201.1339" y2="1276.7244"/>
    <line x1="150.0472" x2="187.8425" y1="1087.748" y2="1087.748"/>
    <line x1="225.6378" x2="225.6378" y1="1012.1575" y2="974.3622"/>
    <line x1="225.6378" x2="150.0472" y1="936.5669" y2="898.7717"/>
    <line x1="112.252" x2="74.4567" y1="860.9764" y2="860.9764"/>
    <line x1="112.252" x2="74.4567" y1="785.3858" y2="747.5906"/>
    <line x1="36.6614" x2="36.6614" y1="709.7953" y2="672.0"/>
    <line x1="150.0472" x2="187.8425" y1="634.2047" y2="634.2047"/>
    <line x1="187.8425" x2="150.0472" y1="558.6142" y2="558.6142"/>
    <line x1="112.252" x2="74.4567" y1="520.8189" y2="520.8189"/>
    <line x1="74.4567" x2="36.6614" y1="483.0236" y2="483.0236"/>
    <line x1="150.0472" x2="225.6378" y1="483.0236" y2="483.0236"/>
    <line x1="263.4331" x2="301.2283" y1="520.8189" y2="520.8189"/>
    <line x1="301.2283" x2="339.0236" y1="445.2283" y2="445.2283"/>
    <line x1="376.8189" x2="414.6142" y1="520.8189" y2="520.8189"/>
    <line x1="528.0" x2="565.7953" y1="369.6378" y2="369.6378"/>
    <line x1="603.5906" x2="603.5906" y1="369.6378" y2="294.0472"/>
    <line x1="603.5906" x2="603.5906" y1="218.4567" y2="180.6614"/>
    <line x1="565.7953" x2="528.0" y1="218.4567" y2="180.6614"/>
    <line x1="528.0" x2="528.0" y1="142.8661" y2="105.0709"/>
    <line x1="641.3858" x2="679.1811" y1="142.8661" y2="142.8661"/>
    <line x1="792.5669" x2="792.5669" y1="105.0709" y2="67.2756"/>
    <line x1="263.4331" x2="263.4331" y1="331.8425" y2="369.6378"/>
    <line x1="225.6378" x2="150.0472" y1="294.0472" y2="294.0472"/>
    <line x1="74.4567" x2="74.4567" y1="294.0472" y2="331.8425"/>
    <line x1="74.4567" x2="112.252" y1="180.6614" y2="180.6614"/>
    <line x1="187.8425" x2="225.6378" y1="785.3858" y2="823.1811"/>
    <line x1="263.4331" x2="339.0236" y1="898.7717" y2="898.7717"/>
    <line x1="339.0236" x2="339.0236" y1="974.3622" y2="1012.1575"/>
    <line x1="414.6142" x2="452.4094" y1="1012.1575" y2="974.3622"/>
    <line x1="452.4094" x2="452.4094" y1="898.7717" y2="860.9764"/>
    <line x1="112.252" x2="74.4567" y1="974.3622" y2="974.3622"/>
    <line x1="641.3858" x2="641.3858" y1="1201.1339" y2="1238.9291"/>
  </g>
</svg>
